<svg xmlns="http://www.w3.org/2000/svg" viewBox="0 0 64 64"><rect width="39" height="48" x="14" y="5" fill="#faefde" rx="2" ry="2"/><path fill="#cda1a7" d="M12,5h7a0,0,0,0,1,0,0V53a0,0,0,0,1,0,0H9a0,0,0,0,1,0,0V8A3,3,0,0,1,12,5Z"/><rect width="42" height="6" x="9" y="53" fill="#efd8be" rx="2" ry="2"/><path fill="#8d6c9f" d="M38 25a1 1 0 0 0-1-1H27a1 1 0 0 0 0 2H37A1 1 0 0 0 38 25zM45 24H41a1 1 0 0 0 0 2h4a1 1 0 0 0 0-2zM41 28H31a1 1 0 0 0 0 2H41a1 1 0 0 0 0-2zM19 8a1 1 0 0 0-1 1v4a1 1 0 0 0 2 0V9A1 1 0 0 0 19 8z"/><path fill="#8d6c9f" d="M51,4H12A4,4,0,0,0,8,8V56a4,4,0,0,0,4,4H49a3,3,0,0,0,3-3V53.82A3,3,0,0,0,54,51V7A3,3,0,0,0,51,4ZM49,58H12a2,2,0,0,1-2-2,2.26,2.26,0,0,1,2-2H50v3A1,1,0,0,1,49,58Zm3-7a1,1,0,0,1-1,1H20V17a1,1,0,0,0-2,0V52H12a3.94,3.94,0,0,0-2,.63V8a2,2,0,0,1,2-2H51a1,1,0,0,1,1,1Z"/><path fill="#8d6c9f" d="M15 8H13a1 1 0 0 0 0 2h2a1 1 0 0 0 0-2zM15 13H13a1 1 0 0 0 0 2h2a1 1 0 0 0 0-2zM15 18H13a1 1 0 0 0 0 2h2a1 1 0 0 0 0-2zM15 23H13a1 1 0 0 0 0 2h2a1 1 0 0 0 0-2zM15 28H13a1 1 0 0 0 0 2h2a1 1 0 0 0 0-2zM15 33H13a1 1 0 0 0 0 2h2a1 1 0 0 0 0-2zM15 38H13a1 1 0 0 0 0 2h2a1 1 0 0 0 0-2zM15 43H13a1 1 0 0 0 0 2h2a1 1 0 0 0 0-2zM15 48H13a1 1 0 0 0 0 2h2a1 1 0 0 0 0-2z"/></svg>