<svg xmlns="http://www.w3.org/2000/svg"  viewBox="0 0 64 64" width="64px" height="64px"><path fill="#85cbf8" d="M13,15l9.35-9.35a2,2,0,0,1,2.83,0l4,4,5.62,5.62Z"/><path fill="#faefde" d="M25.11,15,37.64,2.47a2,2,0,0,1,2.83,0L53,15"/><rect width="58" height="44" x="3" y="15.06" fill="#efd8be" rx="2" ry="2"/><path fill="#cda1a7" d="M7,54H57a4,4,0,0,1,4,4v1a0,0,0,0,1,0,0H3a0,0,0,0,1,0,0V58A4,4,0,0,1,7,54Z"/><rect width="6" height="20" x="29" y="14" fill="#cda1a7" rx="3" ry="3" transform="rotate(-90 32 24)"/><path fill="#8d6c9f" d="M59,14.06H53.47L41.18,1.76a3.07,3.07,0,0,0-4.24,0L29.83,8.87,25.89,4.94a3.07,3.07,0,0,0-4.24,0l-9.12,9.12H5a3,3,0,0,0-3,3v40a3,3,0,0,0,3,3H59a3,3,0,0,0,3-3v-40A3,3,0,0,0,59,14.06ZM38.35,3.18a1,1,0,0,1,1.41,0L50.64,14.06H27.47ZM23.06,6.35a1,1,0,0,1,1.41,0l3.94,3.94-3.77,3.77H15.36ZM60,57.06a1,1,0,0,1-1,1H5a1,1,0,0,1-1-1v-40a1,1,0,0,1,1-1H59a1,1,0,0,1,1,1Z"/><path fill="#8d6c9f" d="M39 20H25a4 4 0 0 0 0 8H39a4 4 0 0 0 0-8zm0 6H25a2 2 0 0 1 0-4H39a2 2 0 0 1 0 4zM17 52.06a1 1 0 0 0-1 1v2a1 1 0 0 0 2 0v-2A1 1 0 0 0 17 52.06zM12 52.06a1 1 0 0 0-1 1v2a1 1 0 0 0 2 0v-2A1 1 0 0 0 12 52.06zM7 52.06a1 1 0 0 0-1 1v2a1 1 0 0 0 2 0v-2A1 1 0 0 0 7 52.06zM22 52.06a1 1 0 0 0-1 1v2a1 1 0 0 0 2 0v-2A1 1 0 0 0 22 52.06zM27 52.06a1 1 0 0 0-1 1v2a1 1 0 0 0 2 0v-2A1 1 0 0 0 27 52.06zM32 52.06a1 1 0 0 0-1 1v2a1 1 0 0 0 2 0v-2A1 1 0 0 0 32 52.06zM37 52.06a1 1 0 0 0-1 1v2a1 1 0 0 0 2 0v-2A1 1 0 0 0 37 52.06zM42 52.06a1 1 0 0 0-1 1v2a1 1 0 0 0 2 0v-2A1 1 0 0 0 42 52.06zM47 52.06a1 1 0 0 0-1 1v2a1 1 0 0 0 2 0v-2A1 1 0 0 0 47 52.06zM52 52.06a1 1 0 0 0-1 1v2a1 1 0 0 0 2 0v-2A1 1 0 0 0 52 52.06zM57 52.06a1 1 0 0 0-1 1v2a1 1 0 0 0 2 0v-2A1 1 0 0 0 57 52.06zM42 47a1 1 0 0 0-1-1H23a1 1 0 0 0 0 2H41A1 1 0 0 0 42 47zM27 44a1 1 0 0 0 1-1V38.41l1.29 1.29a1 1 0 0 0 1.41-1.41l-3-3a1 1 0 0 0-1.41 0l-3 3a1 1 0 0 0 1.41 1.41L26 38.41V43A1 1 0 0 0 27 44zM37 44a1 1 0 0 0 1-1V38.41l1.29 1.29a1 1 0 0 0 1.41-1.41l-3-3a1 1 0 0 0-1.41 0l-3 3a1 1 0 0 0 1.41 1.41L36 38.41V43A1 1 0 0 0 37 44z"/></svg>