<svg xmlns="http://www.w3.org/2000/svg"  viewBox="0 0 64 64" width="64px" height="64px"><path fill="#f9dd8f" d="M33.3,6.12L58.6,27.8c0.878,0.751,1.388,1.845,1.4,3V55c0,1.105-0.895,2-2,2H6 c-1.105,0-2-0.895-2-2V30.84c0.012-1.155,0.522-2.249,1.4-3L30.7,6.12C31.448,5.48,32.552,5.48,33.3,6.12z"/><path fill="#efc88e" d="M32 5L4 29v1.65c0 1.105.895 2 2 2 .477 0 .938-.17 1.3-.48l23.4-20.05c.748-.64 1.852-.64 2.6 0l23.4 20.05c.839.718 2.102.62 2.82-.22.31-.362.48-.823.48-1.3V29L32 5zM8 52h48c2.209 0 4 1.791 4 4l0 0c0 .552-.448 1-1 1H5c-.552 0-1-.448-1-1l0 0C4 53.791 5.791 52 8 52z"/><path fill="#8d6c9f" d="M59.25,27L34,5.36c-1.123-0.96-2.777-0.96-3.9,0L4.75,27C3.629,27.959,2.988,29.364,3,30.84V55 c0,1.657,1.343,3,3,3h52c1.657,0,3-1.343,3-3V30.84C61.012,29.364,60.371,27.959,59.25,27z M59,55c0,0.552-0.448,1-1,1H6 c-0.552,0-1-0.448-1-1V30.84c-0.013-0.869,0.352-1.701,1-2.28L31.35,6.88c0.374-0.32,0.926-0.32,1.3,0L58,28.56 c0.648,0.579,1.013,1.411,1,2.28V55z"/><path fill="#8d6c9f" d="M17 50c-.552 0-1 .448-1 1v2c0 .552.448 1 1 1 .552 0 1-.448 1-1v-2C18 50.448 17.552 50 17 50zM12 50c-.552 0-1 .448-1 1v2c0 .552.448 1 1 1s1-.448 1-1v-2C13 50.448 12.552 50 12 50zM7 50c-.552 0-1 .448-1 1v2c0 .552.448 1 1 1s1-.448 1-1v-2C8 50.448 7.552 50 7 50zM22 50c-.552 0-1 .448-1 1v2c0 .552.448 1 1 1s1-.448 1-1v-2C23 50.448 22.552 50 22 50zM42 50c-.552 0-1 .448-1 1v2c0 .552.448 1 1 1s1-.448 1-1v-2C43 50.448 42.552 50 42 50zM47 50c-.552 0-1 .448-1 1v2c0 .552.448 1 1 1s1-.448 1-1v-2C48 50.448 47.552 50 47 50zM52 50c-.552 0-1 .448-1 1v2c0 .552.448 1 1 1s1-.448 1-1v-2C53 50.448 52.552 50 52 50zM57 50c-.552 0-1 .448-1 1v2c0 .552.448 1 1 1s1-.448 1-1v-2C58 50.448 57.552 50 57 50zM27 50c-.552 0-1 .448-1 1v2c0 .552.448 1 1 1s1-.448 1-1v-2C28 50.448 27.552 50 27 50zM32 50c-.552 0-1 .448-1 1v2c0 .552.448 1 1 1s1-.448 1-1v-2C33 50.448 32.552 50 32 50zM37 50c-.552 0-1 .448-1 1v2c0 .552.448 1 1 1s1-.448 1-1v-2C38 50.448 37.552 50 37 50z"/><g><path fill="#72caaf" d="M30.942,43.208h10.056c0,0,1.792,3.792,5.792,3.792c-1-1-1.167-3.792-1.167-3.792h2.225 c0.637,0,1.153-0.464,1.153-1.037V31.803c0-0.573-0.516-1.037-1.153-1.037H30.942c-0.637,0-1.153,0.464-1.153,1.037v10.368 C29.789,42.744,30.305,43.208,30.942,43.208z"/></g><g><path fill="#8d6c9f" d="M49,44h-3.516v-2H48V32H31v10h9.789v2H30c-0.553,0-1-0.448-1-1V31c0-0.552,0.447-1,1-1h19 c0.553,0,1,0.448,1,1v12C50,43.552,49.553,44,49,44z"/></g><g><path fill="#8d6c9f" d="M46.789,48c-2.892,0-5.469-1.702-6.895-4.553c-0.247-0.494-0.047-1.095,0.447-1.342 c0.494-0.246,1.094-0.047,1.342,0.447c0.412,0.825,1.47,2.521,3.424,3.179c-0.295-1.173-0.318-2.385-0.318-2.731 c0-0.552,0.447-0.999,0.999-1h0.001c0.552,0,0.999,0.447,1,0.999c0.002,1.086,0.248,2.835,0.707,3.294 c0.286,0.286,0.372,0.716,0.217,1.09C47.559,47.756,47.193,48,46.789,48z"/></g><g><path fill="#85cbf8" d="M34.847,38.208H24.792C24.792,38.208,23,42,19,42c1-1,1.167-3.792,1.167-3.792h-2.225 c-0.637,0-1.153-0.464-1.153-1.037V26.803c0-0.573,0.516-1.037,1.153-1.037h16.906c0.637,0,1.153,0.464,1.153,1.037v10.368 C36,37.744,35.484,38.208,34.847,38.208z"/></g><g><path fill="#8d6c9f" d="M36,39H25v-2h10V27H18v10h2.305v2H17c-0.553,0-1-0.448-1-1V26c0-0.552,0.447-1,1-1h19 c0.553,0,1,0.448,1,1v12C37,38.552,36.553,39,36,39z"/></g><g><path fill="#8d6c9f" d="M19,43c-0.404,0-0.77-0.244-0.924-0.617c-0.155-0.374-0.069-0.804,0.217-1.09 c0.459-0.459,0.705-2.208,0.707-3.294C19.001,37.448,19.448,37,20,37h0.001c0.552,0,0.999,0.448,0.999,1 c0,0.347-0.023,1.559-0.318,2.731c1.954-0.657,3.012-2.354,3.424-3.179c0.248-0.494,0.848-0.695,1.342-0.447 c0.494,0.247,0.694,0.848,0.447,1.342C24.469,41.298,21.892,43,19,43z"/></g></svg>