<svg xmlns="http://www.w3.org/2000/svg"  viewBox="0 0 64 64" width="64px" height="64px"><path fill="#faefde" d="M16.92,40.326C16.919,40.326,16.919,40.326,16.92,40.326c-0.501,0-2.113-1.33-2.955-4.473 c-0.855-3.19-0.087-5.275,0.307-5.382c0.003,0,0.728-1.472,3.098-1.146c0.883,0.121,0.139-1.776,0.29-2.634 c0.128-0.729,0.023-1.55-0.135-2.795c-0.244-1.914-0.613-4.807-0.215-8.786c0.545-5.447,3.737-8.699,8.569-8.699 c0.369,0,0.727-0.119,1.023-0.341C29.239,4.32,33.919,3,37.789,3h1.706c10.354,0,17.833,5.293,20.898,14.642 c-1.177-0.133-0.784,0.694-1.621,1.499c-0.652,0.626-2.88,1.129-2.104,3.236c1.054,2.86,1.428,4.549,1.54,6.949 c0.029,0.611,3.061-0.466,3.092-0.469c0.412,0.142,1.16,3.832,0.313,6.996c-0.842,3.144-2.454,4.473-2.954,4.473 c-0.698-0.002-1.422,0.496-1.637,1.22C54.15,51.214,46.622,61,37.789,61s-16.361-9.786-19.234-19.454 C18.34,40.823,17.675,40.326,16.92,40.326z"/><path fill="#efd8be" d="M13.965 35.853c-.855-3.19-.087-5.275.307-5.382.003 0 .193-1.515 2.563-1.189.883.121 1.456 8.634 1.279 12.027C18.074 42.063 14.807 38.996 13.965 35.853zM61.477 35.853c.855-3.19.087-5.275-.307-5.382-.003 0-.193-1.515-2.563-1.189-.883.121-1.456 8.634-1.279 12.027C57.368 42.063 60.635 38.996 61.477 35.853z"/><path fill="#cda1a7" d="M16,24c0,0,7,1,10-7c5.014,1.614,7.604,5.614,31,4c2.319-0.16,2.57-2.492,3.789-2.358 C57.616,9.293,49.721,3,39,3h-2c-4.007,0-7.58,1.249-10,3c-0.306,0.222-1.629-0.093-2,0c-4,1-7.182,4.889-8,10 c-0.632,3.95-0.848,6.983-0.596,8.897C16.409,24.928,15.996,23.969,16,24z"/><path fill="#dbb2ba" d="M16.404 24.897c-.035-.266-.059-.56-.076-.869C16.12 24.016 16 24 16 24 15.996 23.969 16.409 24.928 16.404 24.897zM39 3h-2c-4.007 0-7.58 1.249-10 3-.046.033-.039.169.005.376.518 2.418 3.165 3.754 5.461 2.835C34.07 8.568 35.919 8 37.44 8h1.744c8.425 0 14.838 5.118 18.051 12.969 2.097-.298 2.714-1.222 3.89-1.094C57.952 10.526 49.721 3 39 3z"/><path fill="#efd8be" d="M52.975,49c-2.728,0-5.285,1.082-7.212,2.866c-2.299,2.128-5.035,3.517-7.974,3.517 c-2.939,0-5.674-1.39-7.974-3.517C27.888,50.082,25.332,49,22.603,49h-1.425c3.72,6.585,9.773,12,16.611,12S50.68,55.585,54.4,49 H52.975z"/><path fill="#faefde" d="M27,27H9V5h22v18C31,25.209,29.209,27,27,27z"/><path fill="#efd8be" d="M7,27c-2.209,0-4-1.791-4-4s1.791-4,4-4h20c-2.209,0-4,1.791-4,4s1.791,4,4,4H7z"/><path fill="#fff7f0" d="M9 1H31V6H9z"/><g><path fill="#8d6c9f" d="M63.021,31.168c-0.353-1.722-1.215-2.85-2.431-3.175c-0.378-0.101-0.918-0.14-1.569,0.071 c-0.054-2.36-0.388-4.373-1.021-6.084c-0.25-0.67-0.17-0.91-0.18-0.91c0.29-0.23,1.75-0.03,3.15,0.55 c0.34,0.14,0.74,0.08,1.02-0.16c0.29-0.24,0.42-0.61,0.34-0.98C59.8,8.91,51.21,2,39.36,2h-1.61C36.06,2,34.01,2.26,32,2.77V1 c0-0.55-0.45-1-1-1H9C8.45,0,8,0.45,8,1v17H7c-2.76,0-5,2.24-5,5s2.24,5,5,5h8c-1.205,0.332-2.166,1.456-2.516,3.168 c-0.303,1.479-0.203,3.29,0.281,5.098c0.854,3.19,2.648,5.533,4.535,6.046c3.124,9.842,11.04,19.603,20.452,19.603 c9.413,0,17.328-9.761,20.452-19.603c1.887-0.513,3.681-2.855,4.536-6.046C63.224,34.459,63.324,32.648,63.021,31.168z M10,2h20v21 c0,1.65-1.35,3-3,3s-3-1.35-3-3c0-1.65,1.35-3,3-3c0.55,0,1-0.45,1-1s-0.45-1-1-1H10V2z M7,26c-1.65,0-3-1.35-3-3 c0-1.65,1.35-3,3-3h16c-0.63,0.84-1,1.88-1,3s0.37,2.16,1,3H7z M16.29,28c0,0.001,0,0.002,0,0.002 c-0.004,0-0.007-0.001-0.011-0.002H16.29z M60.808,35.748c-0.816,3.047-2.483,4.669-3.373,4.669h-0.001h-0.001 c-0.442,0-0.833,0.291-0.958,0.715c-2.773,9.334-10.095,18.782-18.722,18.782c-8.627,0-15.948-9.448-18.722-18.782 c-0.126-0.424-0.516-0.715-0.958-0.715H18.07h-0.001c-0.89,0-2.557-1.622-3.373-4.669c-0.399-1.491-0.492-3.015-0.254-4.18 c0.187-0.913,0.557-1.527,0.989-1.644c0.287-0.079,0.654,0.106,0.911,0.273c0.003,0.002,0.008,0.002,0.011,0.004 c-0.001,0.261-0.006,0.499-0.014,0.677c-0.02,0.55,0.4,1.02,0.95,1.05c0.54,0.04,1.02-0.4,1.05-0.95c0.03-0.65,0.02-1.87-0.04-2.98 H27c2.76,0,5-2.24,5-5v-3.25c4.01,1.67,8.19,2.51,12.46,2.51c0.56,0,1-0.45,1-1c0-0.55-0.44-1-1-1c-4.28,0-8.47-0.9-12.46-2.69 V4.84C33.99,4.29,36.09,4,37.75,4h1.61c10.41,0,17.82,5.51,20.58,15.19c-1.2-0.28-2.65-0.38-3.5,0.43c-0.7,0.68-0.81,1.7-0.31,3.05 c0.78,2.12,1.05,4.8,0.83,8.19c-0.04,0.56,0.38,1.03,0.93,1.07h0.07c0.52,0,0.96-0.41,1-0.94c0.016-0.248,0.022-0.484,0.033-0.725 c0.056-0.023,0.116-0.033,0.168-0.067c0.257-0.166,0.624-0.352,0.911-0.273c0.432,0.116,0.802,0.73,0.989,1.644 C61.3,32.733,61.207,34.257,60.808,35.748z"/><path fill="#8d6c9f" d="M51.983 20.262H48.76c-.552 0-1 .447-1 1s.448 1 1 1h3.223c.552 0 1-.447 1-1S52.535 20.262 51.983 20.262zM29 30A2 2 0 1 0 29 34 2 2 0 1 0 29 30zM48 30A2 2 0 1 0 48 34 2 2 0 1 0 48 30zM37.554 6.003c-.551.044-.961.526-.917 1.077l.155 1.933c.042.523.479.92.996.92.027 0 .054-.001.081-.003.551-.044.961-.526.917-1.077L38.63 6.92C38.586 6.369 38.089 5.963 37.554 6.003zM51.876 11.535l-1.152 1.485c-.338.437-.259 1.064.177 1.403.182.142.398.21.612.21.298 0 .594-.133.791-.387l1.152-1.485c.338-.437.259-1.064-.177-1.403C52.844 11.02 52.215 11.099 51.876 11.535zM46.979 11.69c.129.056.263.082.396.082.387 0 .756-.226.918-.604l.758-1.758c.219-.508-.015-1.096-.522-1.314-.506-.219-1.096.014-1.314.521l-.758 1.758C46.238 10.884 46.472 11.472 46.979 11.69zM43.167 6.271c-.55-.086-1.06.282-1.148.826l-.312 1.91c-.089.545.28 1.059.825 1.148.055.009.109.013.163.013.481 0 .906-.349.986-.839l.312-1.91C44.082 6.875 43.712 6.361 43.167 6.271zM25 6h-4c-.552 0-1 .447-1 1s.448 1 1 1h1.586L19 11.586l-2.293-2.293c-.391-.391-1.023-.391-1.414 0l-3 3c-.391.391-.391 1.023 0 1.414s1.023.391 1.414 0L16 11.414l2.293 2.293C18.488 13.902 18.744 14 19 14s.512-.098.707-.293L24 9.414V11c0 .553.448 1 1 1s1-.447 1-1V7C26 6.447 25.552 6 25 6z"/></g></svg>