<svg xmlns="http://www.w3.org/2000/svg"  viewBox="0 0 64 64" width="64px" height="64px"><path fill="#ced9ed" d="M59,20.833c0,0.315-0.094,0.607-0.273,0.829S58.314,22,58.069,22H5.93 c-0.385,0-0.733-0.292-0.874-0.735c-0.094-0.292-0.094-0.607,0.009-0.899c0.094-0.28,0.282-0.502,0.517-0.619L31.313,7.163 C31.53,7.058,31.765,7,32,7c0.235,0,0.47,0.058,0.686,0.163l25.722,12.584C58.765,19.922,59,20.354,59,20.833z"/><path fill="#b5c4e0" d="M58.2,21.88c-0.02,0.04-0.04,0.08-0.06,0.11C58.12,22,58.09,22,58.07,22H53.9L32,11.28L10.08,22 H6.23c-0.06-0.08-0.11-0.17-0.16-0.26c-0.48-1-0.07-2.19,0.92-2.68l24.32-11.9L32,6.82l0.69,0.34l24.6,12.04 c0.01,0,0.01,0.01,0.02,0.01C58.29,19.71,58.69,20.9,58.2,21.88z"/><path fill="#c2cde7" d="M10 22v3c0 .552.448 1 1 1h6c.552 0 1-.448 1-1v-3M22 22v3c0 .552.448 1 1 1h6c.552 0 1-.448 1-1v-3M34 22v3c0 .552.448 1 1 1h6c.552 0 1-.448 1-1v-3M46 22v3c0 .552.448 1 1 1h6c.552 0 1-.448 1-1v-3"/><path fill="#ced9ed" d="M56 51v-3c0-.552-.448-1-1-1H9c-.552 0-1 .448-1 1v3H6c-.552 0-1 .448-1 1v5h54v-5c0-.552-.448-1-1-1H56zM11 26H17V47H11zM47 26H53V47H47zM23 26H29V47H23zM35 26H41V47H35z"/><path fill="#b5c4e0" d="M11 26H17V29H11zM47 26H53V29H47zM23 26H29V29H23zM35 26H41V29H35zM5 52H59V57H5z"/><path fill="#8d6c9f" d="M52,51h-4c-0.552,0-1,0.448-1,1c0,0.552,0.448,1,1,1h4c0.552,0,1-0.448,1-1 C53,51.448,52.552,51,52,51z"/><path fill="#8d6c9f" d="M58,51h-1v-3c0-1.1-0.9-2-2-2h-1V26.722c0.595-0.347,1-0.985,1-1.722v-2h3.069 c0.549,0,1.073-0.259,1.438-0.711C59.825,21.893,60,21.376,60,20.833c0-0.862-0.452-1.64-1.153-1.984L33.123,6.264 c-0.711-0.346-1.534-0.347-2.249,0.001L5.137,18.852c-0.472,0.234-0.843,0.67-1.015,1.18c-0.174,0.491-0.181,1.038-0.02,1.536 C4.375,22.424,5.109,23,5.93,23H9v2c0,0.737,0.405,1.375,1,1.722V46H9c-1.1,0-2,0.9-2,2v3H6c-1.1,0-2,0.9-2,2v4c0,0.55,0.45,1,1,1 h54c0.55,0,1-0.45,1-1v-4C60,51.9,59.1,51,58,51z M6.01,21c0.007-0.005,0.007-0.018-0.003-0.042 c-0.02-0.062-0.036-0.156,0.014-0.312L31.751,8.063c0.169-0.082,0.331-0.081,0.496-0.001l25.696,12.567 C57.96,20.647,58,20.723,58,20.833c0,0.081-0.016,0.134-0.031,0.167H6.01z M47,25v-2h6v2H47z M52,27v19h-4V27H52z M46,26.722V46h-4 V26.722c0.595-0.347,1-0.985,1-1.722v-2h2v2C45,25.737,45.405,26.375,46,26.722z M35,25v-2h6v2H35z M40,27v19h-4V27H40z M34,26.722 V46h-4V26.722c0.595-0.347,1-0.985,1-1.722v-2h2v2C33,25.737,33.405,26.375,34,26.722z M23,25v-2h6v2H23z M28,27v19h-4V27H28z M22,26.722V46h-4V26.722c0.595-0.347,1-0.985,1-1.722v-2h2v2C21,25.737,21.405,26.375,22,26.722z M11,25v-2h6v2H11z M16,27v19h-4 V27H16z M58,56H6v-3h2h36c0.552,0,1-0.448,1-1c0-0.552-0.448-1-1-1H9v-3h46v4c0,0.55,0.45,1,1,1h2V56z"/></svg>