<svg xmlns="http://www.w3.org/2000/svg"  viewBox="0 0 64 64" width="64px" height="64px"><path fill="#c2cde7" d="M19.7 49h-5L14 53.06A1.67 1.67 0 0 0 15.67 55h0a1.67 1.67 0 0 0 1.49-.92zM45 49h5l.68 4.06A1.67 1.67 0 0 1 49 55h0a1.67 1.67 0 0 1-1.49-.92z"/><rect width="40" height="10" x="12" y="39" fill="#cda1a7" rx="2" ry="2"/><path fill="#faefde" d="M32.18 6.359999999999999A5 5 0 1 0 32.18 16.36A5 5 0 1 0 32.18 6.359999999999999Z"/><path fill="#85cbf8" d="M24,35l-2.4,2.4a4,4,0,0,0-1.05,3.8l3.06,12.24a2.07,2.07,0,0,0,2,1.57h0a2.07,2.07,0,0,0,2-2.36L26.12,41.83a1,1,0,0,1,.67-1.09h0a16.47,16.47,0,0,1,10.42,0h0a1,1,0,0,1,.67,1.09L36.34,52.64a2.07,2.07,0,0,0,2,2.36h0a2.07,2.07,0,0,0,2-1.57L43.45,41.2a4,4,0,0,0-1.05-3.8L40,35"/><path fill="#ed7899" d="M43.25,30.26l-1-4.83A8,8,0,0,0,34.44,19H29.56a8,8,0,0,0-7.84,6.43l-1,4.83a4,4,0,0,0,3,4.67l5.82,1.45A2,2,0,0,0,32,34.44a2,2,0,0,0,2.48,1.94l5.82-1.45A4,4,0,0,0,43.25,30.26Z"/><path fill="#8d6c9f" d="M47 32a1 1 0 0 0 1-1V29a1 1 0 0 0-2 0v2A1 1 0 0 0 47 32zM12 32a1 1 0 0 0 1-1V29a1 1 0 0 0-2 0v2A1 1 0 0 0 12 32zM7 28a1 1 0 0 0-1 1v2a1 1 0 0 0 2 0V29A1 1 0 0 0 7 28zM17 32a1 1 0 0 0 1-1V29a1 1 0 0 0-2 0v2A1 1 0 0 0 17 32zM52 28a1 1 0 0 0-1 1v2a1 1 0 0 0 2 0V29A1 1 0 0 0 52 28zM57 28a1 1 0 0 0-1 1v2a1 1 0 0 0 2 0V29A1 1 0 0 0 57 28z"/><path fill="#8d6c9f" d="M50 38H44a4.81 4.81 0 0 0-.93-1.31l-1.3-1.3 0 0a5 5 0 0 0 2.44-5.31l-1-4.83A9 9 0 0 0 34.44 18H29.56a9 9 0 0 0-8.83 7.23l-1 4.83a5 5 0 0 0 2.44 5.31l0 0-1.3 1.3A4.81 4.81 0 0 0 20 38H14a3 3 0 0 0-3 3v6a3 3 0 0 0 2.54 3h0L13 53a2.58 2.58 0 0 0 5 1.24L19.44 50h2.28l.92 3.68a3.06 3.06 0 0 0 5.29 1.26 3 3 0 0 0 .72-2.44L28.29 50h7.42l-.36 2.5a3 3 0 0 0 .72 2.44 3.06 3.06 0 0 0 5.29-1.26L42.28 50h2.28L46 54.24A2.58 2.58 0 0 0 51 53l-.51-3h0A3 3 0 0 0 53 47V41A3 3 0 0 0 50 38zM21.73 30.46l1-4.83A7 7 0 0 1 29.56 20h4.88a7 7 0 0 1 6.86 5.63l1 4.83A3 3 0 0 1 40.06 34l-5.82 1.45a1 1 0 0 1-.56-1.92l2.88-1a3 3 0 0 0 2-3.57L38 26.76a1 1 0 1 0-1.94.49l.55 2.2a1 1 0 0 1-.65 1.19L33 31.6a3 3 0 0 0-1 .61 3 3 0 0 0-1-.61l-2.88-1a1 1 0 0 1-.65-1.19L28 27.24A1 1 0 0 0 26 26.76L25.47 29a3 3 0 0 0 2 3.57l2.88 1a1 1 0 0 1-.56 1.92L23.94 34A3 3 0 0 1 21.73 30.46zM16.13 53.6a.58.58 0 0 1-.55.4.58.58 0 0 1-.57-.67L15.56 50h1.77zm4-5.6H14a1 1 0 0 1-1-1V41a1 1 0 0 1 1-1h5.44a5 5 0 0 0 .14 1.44L21.22 48zM28 48l-.9-6.32a15.58 15.58 0 0 1 9.78 0L36 48zm11.41 5.19a1.06 1.06 0 0 1-1 .81 1.07 1.07 0 0 1-1-1.22l.4-2.78L38 48l.86-6A2 2 0 0 0 38 40a1.62 1.62 0 0 0-.44-.21 17.52 17.52 0 0 0-11 0A1.62 1.62 0 0 0 26 40a2 2 0 0 0-.91 2L26 48l.28 2 .4 2.78a1.07 1.07 0 0 1-1 1.22 1.06 1.06 0 0 1-1-.81L23.78 50l-.5-2-1.76-7a3.12 3.12 0 0 1-.08-1 3 3 0 0 1 .87-1.89l.11-.11 1.89-1.89 5 1.24a3 3 0 0 0 2.57-.55l.15-.13.15.13a3 3 0 0 0 2.57.55l5-1.24L41.58 38l.11.11A3 3 0 0 1 42.56 40a3.08 3.08 0 0 1-.08 1l-1.76 7-.5 2zm9.44.61a.57.57 0 0 1-.44.2.58.58 0 0 1-.55-.4L46.67 50h1.77L49 53.33A.57.57 0 0 1 48.86 53.8zM51 47a1 1 0 0 1-1 1H42.78l1.64-6.56A5 5 0 0 0 44.56 40H50a1 1 0 0 1 1 1zM32.18 17.36a6 6 0 1 0-6-6A6 6 0 0 0 32.18 17.36zm0-10a4 4 0 1 1-4 4A4 4 0 0 1 32.18 7.36z"/></svg>