<svg xmlns="http://www.w3.org/2000/svg"  viewBox="0 0 64 64" width="64px" height="64px"><path fill="#c2cde7" d="M59,59.38a1,1,0,0,1-1,1H2a1,1,0,0,1-1-1v-8A9.37,9.37,0,0,1,6.3,43l14.07-6.73c2.55,3.21,5.91,5.5,9.63,5.5s7.08-2.29,9.63-5.5L53.7,43A9.37,9.37,0,0,1,59,51.41Z"/><path fill="#d6dff2" d="M41.85,42.08,30,48,18.15,42.08a3,3,0,0,1-1.57-3.41L17,37H43l.42,1.67A3,3,0,0,1,41.85,42.08Z"/><path fill="#faefde" d="M17.07,30.13h0c-.31,0-1.31-.82-1.83-2.77s-.05-3.27.19-3.33c0,0,1.9-.33,1.92-.71a12.86,12.86,0,0,1,.18-1.63,6.09,6.09,0,0,0-.08-1.73,22.42,22.42,0,0,1-.13-5.44c.34-3.38,2.32-5.39,5.31-5.39a1.06,1.06,0,0,0,.63-.21A12.77,12.77,0,0,1,30,7h1.06c6.42,0,11,3.28,12.95,9.07-.73-.08-.49.43-1,.93s-1.78.7-1.3,2a12.8,12.8,0,0,1,1,4.31c0,.38,1.9-.29,1.92-.29.26.09.72,2.37.19,4.33s-1.52,2.77-1.83,2.77a1.09,1.09,0,0,0-1,.76c-1.78,6-6.44,12.05-11.92,12.05S19.86,36.87,18.08,30.88A1.06,1.06,0,0,0,17.07,30.13Z"/><path fill="#cda1a7" d="M17.45,20A7.47,7.47,0,0,0,24,15c3,1,4,4,18,3,1.39-.1,1.6.39,2,0s-.72-2,0-1.93C42.11,10.28,37.47,7,31.06,7H30a12.77,12.77,0,0,0-6.75,1.9,1.06,1.06,0,0,1-.63.21c-3,0-5,2-5.31,5.39a22.42,22.42,0,0,0,.13,5.44Z"/><path fill="#85cbf8" d="M49,1C41.27,1,35,6,35,12.1c0,4,2.7,7.56,6.75,9.5a11,11,0,0,1-1.44,5,8,8,0,0,0,5.47-3.68,17.84,17.84,0,0,0,3.22.3c7.73,0,14-5,14-11.11S56.73,1,49,1Z"/><path fill="#ed7899" d="M37 51L30 49 23 51 23 45 30 47 37 45 37 51z"/><path fill="#acb7d0" d="M55,56H5a4,4,0,0,0-4,4H1a1,1,0,0,0,1,1H58a1,1,0,0,0,1-1h0A4,4,0,0,0,55,56Z"/><path fill="#9fddff" d="M60.75,12.1h-.09a2,2,0,0,1-1.87-1.4c-.83-2.8-4.06-5.05-8-5.58a2,2,0,0,1-1.77-2V3.09a2,2,0,0,1,2.22-1.95c5.62.71,10.13,4.08,11.41,8.43A2,2,0,0,1,60.75,12.1Z"/><path fill="#8d6c9f" d="M45 58a1 1 0 0 0 1-1V55a1 1 0 0 0-2 0v2A1 1 0 0 0 45 58zM50 58a1 1 0 0 0 1-1V55a1 1 0 0 0-2 0v2A1 1 0 0 0 50 58zM55 58a1 1 0 0 0 1-1V55a1 1 0 0 0-2 0v2A1 1 0 0 0 55 58zM40 58a1 1 0 0 0 1-1V55a1 1 0 0 0-2 0v2A1 1 0 0 0 40 58zM35 54a1 1 0 0 0-1 1v2a1 1 0 0 0 2 0V55A1 1 0 0 0 35 54zM30 52a1 1 0 0 0-1 1v4a1 1 0 0 0 2 0V53A1 1 0 0 0 30 52zM25 54a1 1 0 0 0-1 1v2a1 1 0 0 0 2 0V55A1 1 0 0 0 25 54zM20 54a1 1 0 0 0-1 1v2a1 1 0 0 0 2 0V55A1 1 0 0 0 20 54zM15 54a1 1 0 0 0-1 1v2a1 1 0 0 0 2 0V55A1 1 0 0 0 15 54zM10 54a1 1 0 0 0-1 1v2a1 1 0 0 0 2 0V55A1 1 0 0 0 10 54zM5 54a1 1 0 0 0-1 1v2a1 1 0 0 0 2 0V55A1 1 0 0 0 5 54zM37.4 44.47a1.49 1.49 0 0 0-1.31-.25h0l-4.71 1.35a5 5 0 0 1-2.75 0l-4.71-1.35A1.5 1.5 0 0 0 22 45.66v4.67a1.5 1.5 0 0 0 1.91 1.44l4.71-1.35a5 5 0 0 1 2.75 0l4.71 1.35a1.51 1.51 0 0 0 .41.06 1.5 1.5 0 0 0 1.5-1.5V45.66A1.49 1.49 0 0 0 37.4 44.47zM36 49.67l-4.08-1.17a7 7 0 0 0-3.85 0L24 49.67V46.33l4.08 1.17a7 7 0 0 0 3.85 0L36 46.33zM33.3 16.91a19 19 0 0 1-6.51-1.83l-1.56-.76a2 2 0 0 0-2.55.7l-1.6 2.43a1 1 0 1 0 1.67 1.1l1.6-2.43 1.56.76a21 21 0 0 0 7.2 2A1 1 0 0 0 34.2 18 1 1 0 0 0 33.3 16.91z"/><path fill="#8d6c9f" d="M49,24.21c8.27,0,15-5.43,15-12.11S57.27,0,49,0C43.18,0,38.11,2.69,35.64,6.62h0A16.77,16.77,0,0,0,31,6H30a14.58,14.58,0,0,0-7.31,2C19,8.14,16.42,10.76,16,14.9a22.91,22.91,0,0,0,.14,5.6,7.64,7.64,0,0,1,.09,1l-.09.57a1.79,1.79,0,0,0-.43.06,2.65,2.65,0,0,0-1.79,2.26,7.6,7.6,0,0,0,.18,3.35c.54,2,1.66,3.49,2.89,3.95a21.86,21.86,0,0,0,1.61,3.74L6.25,41.38A11.07,11.07,0,0,0,0,51.3V59a3,3,0,0,0,3,3H57a3,3,0,0,0,3-3V51.3a11.07,11.07,0,0,0-6.25-9.92L41.4,35.47A21.86,21.86,0,0,0,43,31.73c1.23-.46,2.35-2,2.89-3.95a7.6,7.6,0,0,0,.18-3.35l0-.13.22-.3A17.93,17.93,0,0,0,49,24.21Zm3.88,19A9.06,9.06,0,0,1,58,51.3V59a1,1,0,0,1-1,1H3a1,1,0,0,1-1-1V51.3a9.06,9.06,0,0,1,5.12-8.12l12.51-6C22.17,41.07,25.85,44,30,44s7.83-2.93,10.37-6.8ZM44,27.26a5.48,5.48,0,0,1-.95,2c-.33.42-.64.62-.79.62a1,1,0,0,0-1,.72,21.45,21.45,0,0,1-1.66,4,18.7,18.7,0,0,1-1,1.72C36.4,39.58,33.36,42,30,42s-6.4-2.42-8.57-5.66a18.7,18.7,0,0,1-1-1.72,21.45,21.45,0,0,1-1.66-4,1,1,0,0,0-1-.72c-.3,0-1.24-.78-1.74-2.62a5.73,5.73,0,0,1-.15-2.43c.11-.51.29-.71.34-.73a.87.87,0,0,1,.27.12,1,1,0,0,0,1,.06,1,1,0,0,0,.54-.85,11.15,11.15,0,0,1,.17-1.54,5.71,5.71,0,0,0-.08-1.64A21.09,21.09,0,0,1,18,15.1c.31-3.19,2.19-5.1,5-5.1a1,1,0,0,0,.6-.2A12,12,0,0,1,30,8h1a15.07,15.07,0,0,1,3.7.44A9.88,9.88,0,0,0,34,12.1c0,4.12,2.49,7.85,6.7,10.09a9.86,9.86,0,0,1-1.25,3.88,1,1,0,0,0,0,1.1,1,1,0,0,0,.81.42.84.84,0,0,0,.22,0A10.34,10.34,0,0,0,44.18,26,6.88,6.88,0,0,1,44,27.26Zm2-5.34a1,1,0,0,0-1.06.51h0A6.08,6.08,0,0,1,43,24.38h0a7.12,7.12,0,0,1-.87.51c.08-.24.15-.48.21-.71a13,13,0,0,0,.38-2.53,1,1,0,0,0-.57-.95c-.27-.13-.54-.27-.79-.41C38,18.39,36,15.38,36,12.1a8,8,0,0,1,.6-3,9.14,9.14,0,0,1,1-1.76C39.76,4.15,44.06,2,49,2c7.17,0,13,4.53,13,10.1S56.17,22.21,49,22.21A16.38,16.38,0,0,1,46,21.92Z"/></svg>