<svg xmlns="http://www.w3.org/2000/svg"  viewBox="0 0 64 64" width="64px" height="64px"><path fill="#72caaf" d="M14.35,46.43,2.84,53.82A4,4,0,0,0,1,57.19V61a2,2,0,0,0,2,2H36.92a2,2,0,0,0,2-2V57.25a4,4,0,0,0-1.83-3.36L25.56,46.43"/><path fill="#61bc9e" d="M43,58H5a4,4,0,0,0-4,4H1a1,1,0,0,0,1,1H46a1,1,0,0,0,1-1h0A4,4,0,0,0,43,58Z"/><path fill="#85cbf8" d="M38.35,46.43,26.84,53.82A4,4,0,0,0,25,57.19V61a2,2,0,0,0,2,2H60.92a2,2,0,0,0,2-2V57.25a4,4,0,0,0-1.83-3.36L49.56,46.43"/><path fill="#6cbae5" d="M59,58H25v4a1,1,0,0,0,1,1H62a1,1,0,0,0,1-1h0A4,4,0,0,0,59,58Z"/><path fill="#faefde" d="M35.45 40.42h0c-.22 0-.92-.55-1.28-1.85s0-2.18.13-2.22c0 0 1.33-.22 1.34-.47a8.18 8.18 0 0 1 .13-1.09 3.87 3.87 0 0 0-.06-1.15A14.24 14.24 0 0 1 35.62 30c.24-2.25 1.62-3.59 3.72-3.59a.76.76 0 0 0 .44-.14A9.27 9.27 0 0 1 44.5 25h.74c4.49 0 7.73 2.19 9.06 6-.51-.06-.34.29-.7.62s-1.25.47-.91 1.34a8.19 8.19 0 0 1 .67 2.87c0 .25 1.33-.19 1.34-.19a4.29 4.29 0 0 1 .14 2.89A5.81 5.81 0 0 1 53 41s-1.42 2.84-1.79 3.43C49.58 47 47.18 49 44.5 49c-3.83 0-7.1-4-8.34-8A.74.74 0 0 0 35.45 40.42zM11.45 40.42h0c-.22 0-.92-.55-1.28-1.85s0-2.18.13-2.22c0 0 1.33-.22 1.34-.47a8.18 8.18 0 0 1 .13-1.09 3.87 3.87 0 0 0-.06-1.15A14.24 14.24 0 0 1 11.62 30c.24-2.25 1.62-3.59 3.72-3.59a.76.76 0 0 0 .44-.14A9.27 9.27 0 0 1 20.5 25h.74c4.49 0 7.73 2.19 9.06 6-.51-.06-.34.29-.7.62s-1.25.47-.91 1.34a8.19 8.19 0 0 1 .67 2.87c0 .25 1.33-.19 1.34-.19a4.29 4.29 0 0 1 .14 2.89A5.81 5.81 0 0 1 29 41s-1.42 2.84-1.79 3.43C25.58 47 23.18 49 20.5 49c-3.83 0-7.1-4-8.34-8A.74.74 0 0 0 11.45 40.42z"/><path fill="#cda1a7" d="M12.36,33.4a4.82,4.82,0,0,0,4.23-3.23c1.94.65,2.58,2.58,11.63,1.94.9-.06,1,.25,1.29,0s-.47-1.3,0-1.25A8.23,8.23,0,0,0,21.15,25h-.68a8.25,8.25,0,0,0-4.36,1.23.68.68,0,0,1-.41.14c-1.93,0-3.21,1.3-3.43,3.48a14.48,14.48,0,0,0,.09,3.52Z"/><path fill="#8b8e98" d="M36.36,33.4a4.82,4.82,0,0,0,4.23-3.23c1.94.65,2.58,2.58,11.63,1.94.9-.06,1,.25,1.29,0s-.47-1.3,0-1.25A8.23,8.23,0,0,0,45.15,25h-.68a8.25,8.25,0,0,0-4.36,1.23.68.68,0,0,1-.41.14c-1.93,0-3.21,1.3-3.43,3.48a14.48,14.48,0,0,0,.09,3.52Z"/><path fill="#72caaf" d="M29,15v3a1,1,0,0,0,1,1H41.5s1,2.29,4.5,3c-.87-2.17,0-3,0-3h4a1,1,0,0,0,1-1V6a1,1,0,0,0-1-1H37"/><path fill="#85cbf8" d="M36,15H22.5s-1,2-4.67,3c.71-2.08.17-3,.17-3H14a1,1,0,0,1-1-1V2a1,1,0,0,1,1-1H36a1,1,0,0,1,1,1V14A1,1,0,0,1,36,15Z"/><path fill="#8d6c9f" d="M61.63,53,51.07,46.22a15.6,15.6,0,0,0,2.38-4.47,4.2,4.2,0,0,0,2-2.81c.55-2.06,0-3.8-1.31-4.15l-.08,0a10,10,0,0,0-.42-1.62l.28.1a1,1,0,0,0,1.36-1.14A9.81,9.81,0,0,0,45.16,24h-.67a10.06,10.06,0,0,0-5,1.34c-2.58.14-4.4,2-4.69,4.9A15.89,15.89,0,0,0,34.9,34c0,.24.07.53.06.59l0,.14-.09,0c-1.31.35-1.86,2.1-1.31,4.15a4.2,4.2,0,0,0,2,2.81,15.71,15.71,0,0,0,2,4L32,49.38l-4.88-3.16a15.6,15.6,0,0,0,2.38-4.47,4.2,4.2,0,0,0,2-2.81c.55-2.06,0-3.8-1.31-4.15l-.08,0a10,10,0,0,0-.42-1.62l.28.1a1,1,0,0,0,1.36-1.14A9.81,9.81,0,0,0,21.16,24h-.67a10.06,10.06,0,0,0-5,1.34c-2.58.14-4.4,2-4.69,4.9A15.89,15.89,0,0,0,10.9,34c0,.24.07.53.06.59l0,.14-.09,0c-1.31.35-1.86,2.1-1.31,4.15a4.2,4.2,0,0,0,2,2.81,15.71,15.71,0,0,0,2,4L2.28,53A5,5,0,0,0,0,57.25v3.95A2.81,2.81,0,0,0,2.81,64H61.11a2.81,2.81,0,0,0,2.81-2.81V57.25A5,5,0,0,0,61.63,53Zm.28,8.15a.81.81,0,0,1-.81.81H2.81A.81.81,0,0,1,2,61.19V57.25a3,3,0,0,1,1.37-2.52l11.5-7.44.42.42a1,1,0,1,0,1.42-1.41l-.94-.95a13.51,13.51,0,0,1-2.49-4.71.93.93,0,0,0-.91-.71h0a2.46,2.46,0,0,1-.89-1.51,3.09,3.09,0,0,1-.07-1.59A1,1,0,0,0,12.82,36a7.76,7.76,0,0,1,.11-1,4.09,4.09,0,0,0-.05-1.19,13.87,13.87,0,0,1-.08-3.37c.2-2,1.3-3.11,3-3.11a1,1,0,0,0,.6-.2A7.83,7.83,0,0,1,20.49,26h.67A7.72,7.72,0,0,1,28.87,31a1.61,1.61,0,0,0-1,.42,1.65,1.65,0,0,0-.27,1.89A7.8,7.8,0,0,1,28.16,36a1,1,0,0,0,.57.83,1,1,0,0,0,.83,0,3.07,3.07,0,0,1-.06,1.6,2.79,2.79,0,0,1-.84,1.51h0a1,1,0,0,0-1,.72,12.47,12.47,0,0,1-3.89,6.09,1,1,0,0,0,1.24,1.57c.23-.18.45-.37.66-.58l4.4,2.85L28.36,51.7a1,1,0,1,0,1.09,1.68l9.43-6.1.42.42a1,1,0,1,0,1.42-1.41l-.94-.95a13.51,13.51,0,0,1-2.49-4.71.93.93,0,0,0-.91-.71h0a2.46,2.46,0,0,1-.89-1.51,3.09,3.09,0,0,1-.07-1.59A1,1,0,0,0,36.82,36a7.76,7.76,0,0,1,.11-1,4.09,4.09,0,0,0-.05-1.19,13.87,13.87,0,0,1-.08-3.37c.2-2,1.3-3.11,3-3.11a1,1,0,0,0,.6-.2A7.83,7.83,0,0,1,44.49,26h.67A7.72,7.72,0,0,1,52.87,31a1.61,1.61,0,0,0-1,.42,1.65,1.65,0,0,0-.27,1.89A7.8,7.8,0,0,1,52.16,36a1,1,0,0,0,.57.83,1,1,0,0,0,.83,0,3.07,3.07,0,0,1-.06,1.6,2.79,2.79,0,0,1-.84,1.51h0a1,1,0,0,0-1,.72,12.47,12.47,0,0,1-3.89,6.09,1,1,0,0,0,1.24,1.57c.23-.18.45-.37.66-.58l10.83,7a3,3,0,0,1,1.37,2.52Z"/><path fill="#8d6c9f" d="M42 56a1 1 0 0 0-1 1v2a1 1 0 0 0 2 0V57A1 1 0 0 0 42 56zM47 56a1 1 0 0 0-1 1v2a1 1 0 0 0 2 0V57A1 1 0 0 0 47 56zM52 56a1 1 0 0 0-1 1v2a1 1 0 0 0 2 0V57A1 1 0 0 0 52 56zM57 56a1 1 0 0 0-1 1v2a1 1 0 0 0 2 0V57A1 1 0 0 0 57 56zM37 56a1 1 0 0 0-1 1v2a1 1 0 0 0 2 0V57A1 1 0 0 0 37 56zM32 56a1 1 0 0 0-1 1v2a1 1 0 0 0 2 0V57A1 1 0 0 0 32 56zM27 56a1 1 0 0 0-1 1v2a1 1 0 0 0 2 0V57A1 1 0 0 0 27 56zM22 56a1 1 0 0 0-1 1v2a1 1 0 0 0 2 0V57A1 1 0 0 0 22 56zM17 56a1 1 0 0 0-1 1v2a1 1 0 0 0 2 0V57A1 1 0 0 0 17 56zM12 56a1 1 0 0 0-1 1v2a1 1 0 0 0 2 0V57A1 1 0 0 0 12 56zM7 56a1 1 0 0 0-1 1v2a1 1 0 0 0 2 0V57A1 1 0 0 0 7 56zM14 16h3.2a4.88 4.88 0 0 1-.31 1.68A1 1 0 0 0 18.1 19 9.23 9.23 0 0 0 23 16h5v2a2 2 0 0 0 2 2H40.93a7.5 7.5 0 0 0 4.87 3l.2 0a1 1 0 0 0 .93-1.37 3.26 3.26 0 0 1-.3-1.63H50a2 2 0 0 0 2-2V6a2 2 0 0 0-2-2H38V2a2 2 0 0 0-2-2H14a2 2 0 0 0-2 2V14A2 2 0 0 0 14 16zM50 6V18H46a1 1 0 0 0-.69.28 2.83 2.83 0 0 0-.69 2.24 4.47 4.47 0 0 1-2.2-1.91 1 1 0 0 0-.92-.6H30V16h6a2 2 0 0 0 2-2V6zM14 2H36V14H22.5a1 1 0 0 0-.88.53 5.39 5.39 0 0 1-2.44 1.92 3.42 3.42 0 0 0-.32-2A1 1 0 0 0 18 14H14z"/></svg>