<svg xmlns="http://www.w3.org/2000/svg"  viewBox="0 0 64 64" width="64px" height="64px"><g id="_x31_8_Aim_Circle_Arrow_Office_Bow"><path fill="#72caaf" d="M33 5A26 26 0 1 0 33 57A26 26 0 1 0 33 5Z"/><path fill="#f9e3ae" d="M33 11A20 20 0 1 0 33 51A20 20 0 1 0 33 11Z"/><path fill="#72caaf" d="M33 18A13 13 0 1 0 33 44A13 13 0 1 0 33 18Z"/><path fill="#ed7899" d="M33 25A6 6 0 1 0 33 37A6 6 0 1 0 33 25Z"/><path fill="#ace3ff" d="M21 18L12 9 13 2 21 10z"/><path fill="#ed7899" d="M12 19L5 11 11 9 21 19z"/><path fill="#8d6c9f" d="M60,31C60,16.1,47.9,4,33,4c-4.6,0-9.2,1.2-13.2,3.4L14.4,2c-0.6-0.6-1.4-0.7-2.2-0.4 c-0.8,0.3-1.2,1-1.2,1.8v4.2L9.7,6.3c-0.4-0.4-1-0.4-1.4,0s-0.4,1,0,1.4L9.6,9H5.4c-0.8,0-1.5,0.5-1.8,1.2S3.4,11.8,4,12.4 l5.4,5.4C7.2,21.8,6,26.4,6,31c0,9,4.5,17.1,11.3,22l-3.1,4.5c-0.3,0.5-0.2,1.1,0.2,1.4c0.2,0.1,0.4,0.2,0.6,0.2 c0.3,0,0.6-0.1,0.8-0.4l3.2-4.5c4.1,2.5,8.9,3.9,14,3.9s9.9-1.4,14-3.9l3.2,4.5c0.2,0.3,0.5,0.4,0.8,0.4c0.2,0,0.4-0.1,0.6-0.2 c0.5-0.3,0.6-0.9,0.2-1.4L48.7,53C55.5,48.1,60,40,60,31z M19.4,9.8c0.4,0.4,0.6,0.9,0.6,1.4v5.3l-7-7V3.4L19.4,9.8z M11.6,11 l7,7h-5.3c-0.5,0-1-0.2-1.4-0.6L5.4,11H11.6z M33,56C19.2,56,8,44.8,8,31c0-4.1,1-8.1,2.9-11.7c0.7,0.5,1.5,0.7,2.3,0.7h7.3 l11.7,11.7c0.2,0.2,0.5,0.3,0.7,0.3s0.5-0.1,0.7-0.3c0.4-0.4,0.4-1,0-1.4L22,18.6v-7.3c0-0.8-0.3-1.6-0.7-2.3C24.9,7,28.9,6,33,6 c13.8,0,25,11.2,25,25S46.8,56,33,56z"/><path fill="#8d6c9f" d="M13.9,24.9c0.1,0,0.2,0.1,0.4,0.1c0.4,0,0.8-0.2,0.9-0.6c0.2-0.6,0.5-1.3,0.8-1.9c0.2-0.5,0-1.1-0.4-1.3 c-0.5-0.2-1.1,0-1.3,0.4c-0.3,0.7-0.7,1.4-0.9,2.1C13.1,24.2,13.4,24.7,13.9,24.9z"/><path fill="#8d6c9f" d="M33,10c-3.3,0-6.5,0.8-9.5,2.2c-0.5,0.2-0.7,0.8-0.4,1.3c0.2,0.5,0.8,0.7,1.3,0.4c2.7-1.3,5.5-2,8.5-2 c10.5,0,19,8.5,19,19s-8.5,19-19,19s-19-8.5-19-19c0-1,0.1-1.9,0.2-2.9c0.1-0.5-0.3-1.1-0.8-1.1c-0.5-0.1-1.1,0.3-1.1,0.8 c-0.2,1-0.2,2.1-0.2,3.1c0,11.6,9.4,21,21,21s21-9.4,21-21S44.6,10,33,10z"/><path fill="#8d6c9f" d="M33 38c3.9 0 7-3.1 7-7s-3.1-7-7-7c-.4 0-.8 0-1.2.1-.5.1-.9.6-.8 1.2.1.5.6.9 1.2.8.3 0 .6-.1.8-.1 2.8 0 5 2.2 5 5s-2.2 5-5 5-5-2.2-5-5c0-.3 0-.6.1-.8.1-.5-.3-1.1-.8-1.2-.6-.1-1.1.3-1.2.8C26 30.2 26 30.6 26 31 26 34.9 29.1 38 33 38zM32 42v2c0 .6.4 1 1 1s1-.4 1-1v-2c0-.6-.4-1-1-1S32 41.4 32 42zM20 32h2c.6 0 1-.4 1-1s-.4-1-1-1h-2c-.6 0-1 .4-1 1S19.4 32 20 32zM26 43.1c.2.1.3.1.5.1.3 0 .7-.2.9-.5l1-1.7c.3-.5.1-1.1-.4-1.4-.5-.3-1.1-.1-1.4.4l-1 1.7C25.4 42.2 25.5 42.8 26 43.1zM21.2 25.4l1.7 1c.2.1.3.1.5.1.3 0 .7-.2.9-.5.3-.5.1-1.1-.4-1.4l-1.7-1c-.5-.3-1.1-.1-1.4.4C20.6 24.5 20.8 25.1 21.2 25.4zM23 35.6l-1.7 1c-.5.3-.6.9-.4 1.4.2.3.5.5.9.5.2 0 .3 0 .5-.1l1.7-1c.5-.3.6-.9.4-1.4C24.1 35.5 23.4 35.4 23 35.6z"/><path fill="#8d6c9f" d="M45,31c0,4.5-2.5,8.6-6.5,10.6c-0.5,0.3-0.7,0.9-0.4,1.3c0.2,0.3,0.5,0.5,0.9,0.5c0.2,0,0.3,0,0.5-0.1 C44.1,41,47,36.2,47,31c0-7.7-6.3-14-14-14c-2.2,0-4.5,0.5-6.5,1.6c-0.5,0.3-0.7,0.9-0.4,1.3c0.3,0.5,0.9,0.7,1.3,0.4 c1.7-0.9,3.6-1.4,5.5-1.4C39.6,19,45,24.4,45,31z"/></g></svg>