<svg xmlns="http://www.w3.org/2000/svg"  viewBox="0 0 64 64" width="64px" height="64px"><path fill="#faefde" d="M51.845,40.981c-0.87,1.34-1.21,2.96-0.89,4.53l0.12,0.59c0.44,2.17-0.95,4.28-3.12,4.72l-5,1.02 c-0.07,0.01-0.13,0.03-0.19,0.06c-0.41,0.17-0.66,0.6-0.6,1.06l0.59,4.17c0.14,1.01-0.5,1.96-1.49,2.21l-2.09,0.54 c-5.18,1.33-10.61,1.33-15.79,0.02l-2.2-0.56c-0.99-0.25-1.64-1.21-1.49-2.22l0.58-4.16c0.07-0.46-0.19-0.89-0.6-1.06 c-0.06-0.03-0.12-0.05-0.19-0.06l-4.99-1.02c-2.17-0.44-3.57-2.55-3.13-4.72l0.12-0.56c0.32-1.57,0.01-3.19-0.88-4.51 c-3.23-4.84-4.87-12.52-4.15-18.2c1.3-10.38,10.63-18.73,22.12-19.81c14.95-1.39,27.59,9.19,27.59,22.44 C56.165,30.151,54.575,36.741,51.845,40.981z"/><path fill="#efd8be" d="M41.265,59.341l-2.09,0.54c-5.18,1.33-10.61,1.33-15.79,0.02l-2.2-0.56 c-0.99-0.25-1.64-1.21-1.49-2.22l0.58-4.16c0.07-0.46-0.19-0.89-0.6-1.06c0,0,4.61,2,11.61,2s11.48-2,11.48-2 c-0.41,0.17-0.66,0.6-0.6,1.06l0.59,4.17C42.895,58.141,42.255,59.091,41.265,59.341z"/><path fill="#fff7f0" d="M50.785,11.691l-1.071,0.654c-1.724,1.053-3.929,0.988-5.543-0.227 c-3.491-2.627-8.015-4.217-12.956-4.217c-0.72,0-1.45,0.03-2.17,0.1c-4.076,0.379-7.799,1.865-10.772,4.11 c-1.618,1.222-3.834,1.283-5.561,0.221l-1.027-0.631c4.03-5.3,9.52-7.99,16.89-8.68C38.175,2.131,45.825,5.171,50.785,11.691z"/><path fill="#7e8189" d="M32.945,49h-2.228c-1.396,0-2.363-1.395-1.873-2.702l1.636-4.363C30.691,41.372,31.229,41,31.829,41 h0.004c0.6,0,1.138,0.372,1.348,0.934l1.636,4.363C35.308,47.605,34.341,49,32.945,49z"/><path fill="#7e8189" d="M45.07,39.671l-0.417,0.256c-0.305,0.187-0.673-0.003-0.764-0.365 c-0.366-1.456-1.161-2.726-2.306-3.653c-2.504-1.808-4.885-1.489-5.919-1.217c-0.314,0.083-0.62-0.15-0.649-0.494 c-0.071-0.847,0.104-1.705,0.52-2.452c0.578-1.054,1.567-1.766,2.697-1.958l3.886-0.68c0.824-0.144,1.686-0.056,2.43,0.349 c1.201,0.654,1.979,1.841,2.121,3.234l0.308,2.972C47.145,37.285,46.396,38.858,45.07,39.671z"/><path fill="#7e8189" d="M17.02,35.663l0.266-2.972c0.122-1.393,0.794-2.58,1.832-3.234c0.642-0.405,1.387-0.493,2.099-0.349 l3.357,0.68c0.976,0.192,1.83,0.904,2.329,1.958c0.359,0.747,0.511,1.604,0.449,2.452c-0.025,0.344-0.289,0.577-0.561,0.494 c-0.893-0.272-2.95-0.591-5.113,1.217c-0.989,0.927-1.676,2.197-1.992,3.653c-0.079,0.362-0.397,0.551-0.66,0.365l-0.36-0.256 C17.522,38.858,16.875,37.285,17.02,35.663z"/><path fill="#8d6c9f" d="M58,25.76c0-6.281-2.696-12.189-7.59-16.638c-5.561-5.054-13.271-7.534-21.16-6.796 C17.247,3.445,7.541,12.142,6.173,23.006C5.41,29.062,7.229,37,10.498,41.88c0.743,1.108,1.002,2.441,0.734,3.753l-0.115,0.565 c-0.269,1.31-0.01,2.646,0.73,3.761c0.739,1.115,1.87,1.875,3.182,2.141l5.008,1.015l-0.588,4.166 c-0.215,1.52,0.748,2.95,2.239,3.327l2.21,0.558c2.657,0.672,5.389,1.007,8.123,1.007c2.76,0,5.521-0.343,8.204-1.028l2.095-0.535 c1.487-0.379,2.446-1.809,2.232-3.325l-0.589-4.17L48.97,52.1c1.313-0.266,2.443-1.026,3.182-2.141 c0.74-1.115,0.998-2.451,0.731-3.761l-0.121-0.591c-0.264-1.283,0.004-2.629,0.755-3.792C56.598,37.043,58,30.147,58,25.76z M51.831,40.733c-1.035,1.604-1.402,3.478-1.033,5.275l0.121,0.591c0.161,0.786,0.005,1.587-0.438,2.256 c-0.443,0.669-1.122,1.125-1.909,1.285l-5.009,1.015c-1.037,0.21-1.733,1.194-1.586,2.239l0.589,4.17 c0.071,0.505-0.249,0.981-0.744,1.108l-2.096,0.535c-5.014,1.28-10.317,1.289-15.336,0.02l-2.21-0.558 c-0.497-0.126-0.818-0.603-0.747-1.109l0.588-4.166c0.147-1.045-0.549-2.028-1.586-2.239l-5.009-1.015 c-0.788-0.16-1.466-0.616-1.909-1.285s-0.599-1.471-0.438-2.256l0.116-0.565c0.378-1.84,0.012-3.71-1.03-5.266 c-3.029-4.521-4.712-11.886-4.004-17.513C9.415,13.314,18.361,5.35,29.436,4.318c0.851-0.079,1.699-0.119,2.542-0.119 c6.416,0,12.532,2.27,17.081,6.402c4.473,4.064,6.936,9.448,6.936,15.159C55.995,29.994,54.565,36.497,51.831,40.733z"/><path fill="#8d6c9f" d="M36.499,9.709c1.087,0.236,2.158,0.557,3.181,0.952c0.119,0.046,0.24,0.068,0.36,0.068 c0.401,0,0.78-0.244,0.933-0.64c0.199-0.515-0.057-1.094-0.572-1.293c-1.119-0.433-2.289-0.783-3.477-1.041 c-0.541-0.118-1.072,0.225-1.189,0.765S35.959,9.592,36.499,9.709z M19.963,12.402c0.178,0,0.358-0.047,0.521-0.147 c2.708-1.655,5.877-2.681,9.163-2.967c0.59-0.051,1.187-0.081,1.775-0.088c0.552-0.007,0.994-0.46,0.988-1.012 c-0.007-0.552-0.427-0.997-1.012-0.988c-0.637,0.008-1.285,0.04-1.924,0.096c-3.593,0.312-7.062,1.438-10.033,3.253 c-0.471,0.288-0.62,0.903-0.332,1.375C19.298,12.232,19.627,12.402,19.963,12.402z M28.755,55.208c-0.552,0-1,0.448-1,1v2 c0,0.552,0.448,1,1,1s1-0.448,1-1v-2C29.755,55.656,29.307,55.208,28.755,55.208z M23.755,54.208c-0.552,0-1,0.448-1,1v2 c0,0.552,0.448,1,1,1s1-0.448,1-1v-2C24.755,54.656,24.307,54.208,23.755,54.208z M34.755,55.208c-0.552,0-1,0.448-1,1v2 c0,0.552,0.448,1,1,1s1-0.448,1-1v-2C35.755,55.656,35.307,55.208,34.755,55.208z M39.755,54.208c-0.552,0-1,0.448-1,1v2 c0,0.552,0.448,1,1,1s1-0.448,1-1v-2C40.755,54.656,40.307,54.208,39.755,54.208z M34.042,41.781 c-0.355-0.947-1.274-1.583-2.289-1.583c-1.011,0-1.93,0.636-2.285,1.583l-1.636,4.363c-0.345,0.921-0.217,1.954,0.344,2.762 c0.559,0.809,1.481,1.292,2.465,1.292h2.228c0.984,0,1.906-0.483,2.466-1.291c0.561-0.809,0.689-1.841,0.344-2.762L34.042,41.781z M33.691,47.767c-0.189,0.274-0.489,0.431-0.822,0.431h-2.228c-0.333,0-0.633-0.157-0.822-0.431 c-0.189-0.273-0.231-0.609-0.114-0.92l1.636-4.363c0.064-0.171,0.229-0.286,0.416-0.286c0.183,0,0.348,0.115,0.412,0.286 l1.636,4.363C33.922,47.158,33.88,47.494,33.691,47.767z"/><path fill="#8d6c9f" d="M47.714,34.602l-0.24-2.17c-0.16-1.38-0.85-2.59-1.95-3.43c-1.1-0.84-2.46-1.18-3.83-0.95l-3.1,0.5 c-1.47,0.24-2.75,1.12-3.51,2.4c-0.64,1.1-0.85,2.39-0.57,3.62c0.04,0.2,0.1,0.4,0.17,0.6l0,0c0.272,0.764,1.052,1.224,1.853,1.093 l0.627-0.103l0.779-0.127c0.641-0.104,1.312-0.039,1.891,0.256c0.935,0.478,1.54,1.344,1.65,2.361l0.07,0.61l0,0 c0.087,0.991,1.134,1.592,2.034,1.17l0.106-0.05l1.54-0.89C46.964,38.502,47.934,36.582,47.714,34.602z M44.239,37.749 l-0.325,0.187c-0.237,0.136-0.524-0.002-0.595-0.266c-0.285-1.063-0.904-1.99-1.796-2.667c-1.95-1.32-3.804-1.088-4.61-0.889 c-0.245,0.06-0.483-0.11-0.505-0.361c-0.056-0.619,0.081-1.245,0.405-1.79c0.45-0.77,1.22-1.29,2.1-1.43l3.026-0.496 c0.641-0.105,1.313-0.041,1.892,0.255c0.936,0.478,1.541,1.344,1.652,2.361l0.24,2.17C45.855,36.006,45.272,37.155,44.239,37.749z"/><path fill="#8d6c9f" d="M17.903,39.492l1.54,0.89l0.106,0.05c0.9,0.423,1.946-0.179,2.034-1.17l0,0l0.07-0.61 c0.11-1.016,0.715-1.883,1.65-2.361c0.578-0.296,1.25-0.361,1.891-0.256l0.779,0.127l0.627,0.103 c0.801,0.131,1.581-0.329,1.853-1.093h0c0.07-0.2,0.13-0.4,0.17-0.6c0.28-1.23,0.07-2.52-0.57-3.62c-0.76-1.28-2.04-2.16-3.51-2.4 l-3.1-0.5c-1.37-0.23-2.73,0.11-3.83,0.95c-1.1,0.84-1.79,2.05-1.95,3.43l-0.24,2.17C15.203,36.582,16.174,38.502,17.903,39.492z M17.413,34.822l0.24-2.17c0.11-1.017,0.716-1.884,1.652-2.361c0.579-0.295,1.251-0.36,1.892-0.255l3.026,0.496 c0.88,0.14,1.65,0.66,2.1,1.43c0.324,0.545,0.461,1.172,0.405,1.79c-0.023,0.251-0.261,0.421-0.505,0.361 c-0.805-0.199-2.66-0.431-4.61,0.889c-0.891,0.677-1.511,1.604-1.796,2.667c-0.071,0.264-0.358,0.403-0.595,0.266l-0.325-0.187 C17.865,37.155,17.283,36.006,17.413,34.822z"/></svg>