<svg xmlns="http://www.w3.org/2000/svg"  viewBox="0 0 64 64" width="64px" height="64px"><path fill="#f9e3ae" d="M32,10c-12.148,0-22,9.852-22,22s9.852,22,22,22s22-9.852,22-22S44.148,10,32,10z"/><path fill="#ffefca" d="M13.711,53.289c2.648,2.523,5.77,4.5,9.18,5.82L57,25v-6.43c-1.055-1.75-2.301-3.379-3.711-4.859 L13.711,53.289z M11.762,51.238L51,12h-6L9.219,47.781C9.977,48.996,10.828,50.152,11.762,51.238z M8.789,44.211L42,11l-3-2 L7.359,40.641C7.754,41.863,8.23,43.055,8.789,44.211z"/><path fill="#f6d397" d="M32,4C16.535,4,4,16.535,4,32s12.535,28,28,28s28-12.535,28-28S47.465,4,32,4z M32,54 c-9.891,0-18.566-6.598-21.207-16.133c-2.637-9.531,1.41-19.652,9.895-24.738s19.32-3.883,26.484,2.941l0.68,0.668 c0.258,0.27,0.508,0.543,0.75,0.82c5.656,6.504,6.996,15.715,3.422,23.562C48.449,48.965,40.621,54,32,54z"/><path fill="#fff8f8" d="M19.5,30l1.238,2.262L23,33.5l-2.262,1.238L19.5,37l-1.238-2.262L16,33.5l2.262-1.238L19.5,30z M44.422,21l0.848,1.559l1.57,0.863l-1.57,0.848l-0.848,1.57l-0.863-1.57L42,23.422l1.559-0.863L44.422,21z M44.352,36.699 l0.59,1.07L46,38.352l-1.059,0.59L44.352,40l-0.582-1.059l-1.07-0.59l1.07-0.582L44.352,36.699z"/><path fill="#8d6c9f" d="M39.352,12.32c0.715,0.27,1.414,0.574,2.098,0.918c0.496,0.25,1.098,0.051,1.348-0.441 c0.246-0.496,0.047-1.098-0.445-1.348c-0.75-0.375-1.516-0.707-2.301-1c-0.508-0.156-1.047,0.109-1.234,0.605 C38.633,11.551,38.863,12.105,39.352,12.32z"/><path fill="#8d6c9f" d="M32,3C15.984,3,3,15.984,3,32s12.984,29,29,29s29-12.984,29-29S48.016,3,32,3z M32,59 C17.09,59,5,46.91,5,32S17.09,5,32,5s27,12.09,27,27S46.91,59,32,59z"/><path fill="#8d6c9f" d="M32,50c-0.551,0-1,0.449-1,1v2c0,0.551,0.449,1,1,1s1-0.449,1-1v-2C33,50.449,32.551,50,32,50z M38,50.078c-0.156-0.512-0.695-0.812-1.215-0.672c-0.523,0.141-0.836,0.668-0.715,1.195l0.52,1.93 c0.148,0.535,0.699,0.852,1.234,0.703c0.535-0.145,0.852-0.699,0.707-1.234L38,50.078z M22.75,47.52 c-0.23-0.133-0.504-0.168-0.762-0.102c-0.258,0.07-0.477,0.242-0.609,0.473l-1,1.73c-0.246,0.473-0.078,1.059,0.387,1.328 s1.059,0.121,1.344-0.328l1-1.73c0.137-0.23,0.172-0.504,0.105-0.762C23.148,47.875,22.98,47.652,22.75,47.52z M42.621,47.891 c-0.289-0.453-0.883-0.598-1.344-0.328c-0.465,0.266-0.637,0.852-0.387,1.328l1,1.73c0.285,0.449,0.879,0.598,1.344,0.328 s0.633-0.855,0.387-1.328L42.621,47.891z M27.211,49.371c-0.535-0.141-1.078,0.176-1.223,0.707L25.469,52 c-0.105,0.348-0.016,0.73,0.242,0.992c0.254,0.262,0.633,0.363,0.984,0.266s0.621-0.383,0.703-0.738l0.523-1.93 C28.059,50.059,27.742,49.512,27.211,49.371z M11,32c0-6.152,2.699-11.996,7.383-15.984s10.883-5.723,16.957-4.746 c0.551,0.09,1.07-0.289,1.16-0.84c0.09-0.551-0.289-1.07-0.84-1.16c-9.859-1.602-19.629,3.344-24.176,12.242 C6.941,30.406,8.66,41.219,15.738,48.27c0.398,0.34,0.988,0.316,1.359-0.051c0.371-0.371,0.391-0.961,0.051-1.359 C13.195,42.93,10.98,37.578,11,32z M48.262,15.738c-0.66-0.66-1.359-1.281-2.09-1.859c-0.277-0.25-0.676-0.328-1.027-0.195 c-0.352,0.129-0.598,0.445-0.641,0.82c-0.043,0.371,0.125,0.738,0.438,0.945c0.668,0.527,1.305,1.098,1.91,1.699 c8.199,8.203,8.199,21.5,0,29.703c-0.285,0.242-0.41,0.625-0.324,0.992c0.09,0.363,0.375,0.648,0.738,0.738 c0.367,0.086,0.75-0.035,0.996-0.32c8.98-8.984,8.98-23.551,0-32.531V15.738z"/><path fill="#8d6c9f" d="M33,17.5c0-0.551-0.449-1-1-1s-1,0.449-1,1v3c0,0.551,0.449,1,1,1s1-0.449,1-1V17.5z"/><path fill="#8d6c9f" d="M33,40.5c0-0.551-0.449-1-1-1s-1,0.449-1,1v3c0,0.551,0.449,1,1,1s1-0.449,1-1V40.5z"/><g><path fill="#8d6c9f" d="M32.184,41c-3.758,0-6.815-3.058-6.815-6.815v-6.785c0-3.759,3.058-6.816,6.815-6.816 c3.758,0,6.816,3.058,6.816,6.816c0,0.553-0.448,1-1,1s-1-0.447-1-1c0-2.656-2.161-4.816-4.816-4.816s-4.815,2.16-4.815,4.816 v6.785c0,2.655,2.16,4.815,4.815,4.815S37,36.84,37,34.185c0-0.553,0.448-1,1-1s1,0.447,1,1C39,37.942,35.942,41,32.184,41z"/></g></svg>