<svg xmlns="http://www.w3.org/2000/svg"  viewBox="0 0 64 64" width="64px" height="64px"><path fill="#faefde" d="M41.76,59.06H13c-1.657,0-3-1.343-3-3v-48c0-1.657,1.343-3,3-3h38c1.657,0,3,1.343,3,3v38.76 c-0.001,0.795-0.317,1.558-0.88,2.12l-9.24,9.24C43.318,58.743,42.555,59.059,41.76,59.06z"/><path fill="#fff8ee" d="M54 5L54.15 14.46 10.66 57.94 10 35 40 5zM54.15 24.85L19.94 59.06 14.19 58.81 54 19zM54.15 30.85L26 59 23 59 54.15 27.85z"/><path fill="#fff" d="M16.5 15L15.26 12.74 13 11.5 15.26 10.26 16.5 8 17.74 10.26 20 11.5 17.74 12.74zM15.58 50L14.73 48.44 13.16 47.58 14.73 46.73 15.58 45.16 16.44 46.73 18 47.58 16.44 48.44zM49.35 15L48.77 13.94 47.7 13.35 48.77 12.77 49.35 11.7 49.93 12.77 51 13.35 49.93 13.94z"/><path fill="#abdef9" d="M42 59L42 47 54 47z"/><path fill="#8d6c9f" d="M36 56c.552 0 1-.448 1-1v-2c0-.552-.448-1-1-1s-1 .448-1 1v2C35 55.552 35.448 56 36 56zM31 56c.552 0 1-.448 1-1v-2c0-.552-.448-1-1-1s-1 .448-1 1v2C30 55.552 30.448 56 31 56zM26 56c.552 0 1-.448 1-1v-2c0-.552-.448-1-1-1s-1 .448-1 1v2C25 55.552 25.448 56 26 56zM21 56c.552 0 1-.448 1-1v-2c0-.552-.448-1-1-1s-1 .448-1 1v2C20 55.552 20.448 56 21 56zM16 52c-.552 0-1 .448-1 1v2c0 .552.448 1 1 1s1-.448 1-1v-2C17 52.448 16.552 52 16 52z"/><path fill="#8d6c9f" d="M12,60h29.34c1.327,0.002,2.6-0.523,3.54-1.46l8.66-8.66c0.937-0.94,1.462-2.213,1.46-3.54V7 c0-1.657-1.343-3-3-3H12c-1.657,0-3,1.343-3,3v50C9,58.657,10.343,60,12,60z M52.12,48.46l-8.66,8.66 c-0.14,0.142-0.294,0.269-0.46,0.38V49c0-0.552,0.448-1,1-1h8.5C52.389,48.166,52.262,48.32,52.12,48.46z M11,7 c0-0.552,0.448-1,1-1h40c0.552,0,1,0.448,1,1v39h-9c-1.657,0-3,1.343-3,3v9H12c-0.552,0-1-0.448-1-1V7z"/><path fill="#8d6c9f" d="M23 18h-4c-.552 0-1-.448-1-1s.448-1 1-1h4c.552 0 1 .448 1 1S23.552 18 23 18zM45 18H27c-.552 0-1-.448-1-1s.448-1 1-1h18c.552 0 1 .448 1 1S45.552 18 45 18zM23 24h-4c-.552 0-1-.448-1-1s.448-1 1-1h4c.552 0 1 .448 1 1S23.552 24 23 24zM45 24H27c-.552 0-1-.448-1-1s.448-1 1-1h18c.552 0 1 .448 1 1S45.552 24 45 24zM23 30h-4c-.552 0-1-.448-1-1s.448-1 1-1h4c.552 0 1 .448 1 1S23.552 30 23 30zM45 30H27c-.552 0-1-.448-1-1s.448-1 1-1h18c.552 0 1 .448 1 1S45.552 30 45 30zM23 36h-4c-.552 0-1-.448-1-1s.448-1 1-1h4c.552 0 1 .448 1 1S23.552 36 23 36zM45 36H27c-.552 0-1-.448-1-1s.448-1 1-1h18c.552 0 1 .448 1 1S45.552 36 45 36zM23 42h-4c-.552 0-1-.448-1-1s.448-1 1-1h4c.552 0 1 .448 1 1S23.552 42 23 42zM45 42H27c-.552 0-1-.448-1-1s.448-1 1-1h18c.552 0 1 .448 1 1S45.552 42 45 42z"/></svg>