<svg xmlns="http://www.w3.org/2000/svg"  viewBox="0 0 64 64" width="64px" height="64px"><path fill="#acb7d0" d="M59.257,23.628c-0.13-0.197-0.327-0.494-0.353-0.527c0.034-0.105,0.054-0.213,0.061-0.323 c0.019-0.361,0.359-1.057,0.556-1.362c0.229-0.303,0.31-0.692,0.221-1.062l-0.458-1.872c-0.023-0.091-0.055-0.179-0.097-0.264 l-0.185-0.372c-0.132-0.269-0.211-0.504-0.285-0.717c-0.105-0.308-0.206-0.584-0.348-0.851c-0.211-0.395-0.614-0.648-1.06-0.666 c-0.054-0.003-0.108,0-0.161,0.004l-1.22-1.181c-0.4-0.388-0.722-0.842-1.179-1.485c-0.714-1.009-1.692-2.392-3.712-4.534 c-0.541-0.724-1.884-1.418-2.035-1.495c-0.472-0.238-1.043-0.158-1.431,0.203l-0.03,0.028c-0.334-0.01-0.784-0.271-1.672-0.802 c-0.298-0.179-0.632-0.378-1.011-0.595c-1.092-0.627-1.639-0.923-2.016-1.029C42.75,4.7,42.578,4.635,42.369,4.552l-0.403-0.156 c-0.111-0.042-0.227-0.068-0.344-0.077l-0.657-0.052c-0.337-0.025-0.675,0.087-0.925,0.306C39.666,4.315,39.315,4.108,39.019,4 c-0.907-0.333-1.391-0.499-1.732-0.55c-0.362-0.042-0.769-0.1-1.193-0.16c-0.908-0.13-1.935-0.276-2.745-0.287L32.948,3 c-0.004,0-0.006,0-0.01,0c-2.817,0-4.548,0.286-7.155,1.188c-0.807,0.277-1.243,0.777-1.302,1.485l-3.557,0.624 c-0.119,0.02-0.232,0.058-0.339,0.111c-0.148,0.072-0.485,0.216-0.932,0.406c-0.762,0.325-2.785,1.188-3.95,1.812 c-0.149,0.079-0.28,0.188-0.386,0.319l-0.588,0.729c-0.601,0.745-1.083,1.139-1.529,1.503c-0.295,0.242-0.551,0.455-0.807,0.726 c-0.026,0.026-2.785,2.876-4.269,4.118c-0.238,0.2-0.395,0.484-0.439,0.793c-0.144,1.034-0.808,1.79-1.396,2.464 c-0.506,0.576-0.758,0.889-0.867,1.262c-0.033,0.117-0.05,0.238-0.05,0.359c0.004,0.944-0.453,1.914-0.982,3.037 C3.756,25.279,3.04,26.8,3.04,28.656c0,4.13,2.153,7.127,5.778,7.127c3.3,0,7.154-2.262,7.154-8.745 c0-3.445,3.427-6.709,5.474-8.658l0.306-0.293c0.229-0.219,0.87-0.478,1.255-0.633c0.652-0.265,1.466-0.593,1.466-1.529 c0-0.459-0.131-0.862-0.328-1.208c3.646-1.639,4.795-1.64,8.537-1.63h0.768c2.489,0,5.503,0.966,7.496,1.869 c0.686,0.311,1.256,0.55,1.746,0.754l0.662,0.274c1.473,0.606,1.737,0.715,2.969,1.824c0.371,0.334,0.903,0.417,1.357,0.214 c0.136-0.061,0.258-0.144,0.362-0.245c1.582,2.634,1.696,4.28,1.746,5.004c0.01,0.148,0.02,0.267,0.047,0.449l1.597,7.74 c0.029,0.142,0.083,0.28,0.16,0.405l0.788,1.285c0.221,0.358,0.604,0.582,1.023,0.6c-0.192,1.672-0.751,2.68-1.217,3.521 c-0.343,0.62-0.667,1.207-0.75,1.895c-0.132,1.117-0.299,2.508-0.542,2.756c-0.084,0.087-0.156,0.185-0.213,0.294 c-0.112,0.213-0.148,0.393-0.276,1.058c-0.047,0.242-0.095,0.499-0.131,0.652c-1.526,2.863-6.136,9.44-16.929,11.258h-4.088 c-5.551,0-10.201-2.779-13.819-8.26c-0.308-0.464-0.878-0.675-1.416-0.513c-0.532,0.161-0.896,0.653-0.896,1.209 c0,0.229,0.054,0.498,0.132,0.788c-1.364-0.898-3.182-2.242-5.63-4.278c-0.504-0.419-1.28-0.424-1.739,0.037 c-0.46,0.463-0.53,1.159-0.11,1.658c1.586,3.095,3.277,4.898,4.433,5.874c0.577,0.582,1.478,1.26,2.428,1.974 c0.547,0.411,1.103,0.83,1.51,1.155C18.688,58.758,24.205,61,30.552,61c7.749,0,11.267-1.355,12.956-2.007l0.316-0.121 c0.494-0.183,0.822-0.656,0.822-1.181c0-0.387,0.011-0.521,0.229-0.736c0.158-0.135,0.978-0.416,2.504-0.416 c3.566,0,5.321-2.622,7.178-5.399c0.603-0.901,1.226-1.833,1.929-2.707l0.026-0.016c1.896-0.677,2.379-2.703,2.805-4.491 c0.272-1.141,0.555-2.321,1.228-2.841c0.31-0.238,0.49-0.608,0.49-0.999V27.83C61.036,26.507,60.183,25.03,59.257,23.628z"/><path fill="#b5c4e0" d="M19.007,6.225c-0.004-0.009-0.015-0.013-0.024-0.009C9.49,11.036,3,20.773,3,32l-0.137-2.837 c0,0.663,0.216,3.506,0.721,3.077h0c0.444,1.241,2.193,1.348,2.743,0.15c0.616-1.341,0.853-2.86,1.14-4.538 c1.071-6.246,5.483-11.522,10.476-15.146c1.71-1.241,2.371-3.473,1.529-5.411L19.007,6.225z"/><path fill="#8d6c9f" d="M10.714,21.036c-0.192,0-0.387-0.055-0.558-0.171c-0.458-0.309-0.579-0.93-0.27-1.388 c0.481-0.714,1.017-1.427,1.591-2.12c0.353-0.424,0.983-0.482,1.408-0.131c0.425,0.353,0.483,0.983,0.131,1.408 c-0.532,0.642-1.028,1.301-1.472,1.961C11.352,20.882,11.036,21.036,10.714,21.036z M15.136,15.986 c-0.272,0-0.543-0.11-0.741-0.328c-0.371-0.409-0.341-1.041,0.068-1.413c0.904-0.821,1.877-1.611,2.893-2.348 c0.446-0.326,1.073-0.225,1.396,0.222c0.325,0.447,0.225,1.072-0.222,1.396c-0.957,0.695-1.873,1.438-2.723,2.21 C15.617,15.9,15.376,15.986,15.136,15.986z"/><path fill="#8d6c9f" d="M30.552,62c-6.616,0-12.368-2.336-17.097-6.945c-0.327-0.255-0.875-0.667-1.414-1.072 c-0.985-0.741-1.91-1.437-2.538-2.07c-1.139-0.956-2.914-2.835-4.568-6.036c-0.651-0.873-0.555-2.1,0.245-2.905 c0.816-0.817,2.171-0.861,3.087-0.101c1.522,1.267,2.898,2.345,4.108,3.22c0.272-0.53,0.752-0.943,1.355-1.126 c0.965-0.29,1.985,0.08,2.541,0.917c3.421,5.185,7.79,7.812,12.985,7.812h4.003c10.191-1.746,14.595-7.905,16.067-10.61 c0.021-0.103,0.045-0.227,0.069-0.353l0.026-0.137c0.139-0.719,0.191-0.988,0.373-1.333c0.079-0.15,0.176-0.294,0.29-0.426 c0.133-0.388,0.283-1.652,0.357-2.276c0.106-0.882,0.493-1.581,0.866-2.257c0.356-0.643,0.746-1.347,0.971-2.37 c-0.301-0.183-0.559-0.437-0.75-0.747l-0.79-1.287c-0.138-0.225-0.234-0.469-0.287-0.727l-1.597-7.739 c-0.041-0.269-0.053-0.409-0.065-0.582c-0.04-0.566-0.125-1.804-1.159-3.768c-0.696,0.148-1.435-0.043-1.978-0.533 c-1.101-0.992-1.25-1.053-2.675-1.64l-0.668-0.276c-0.501-0.209-1.081-0.451-1.778-0.768c-1.897-0.86-4.754-1.779-7.082-1.779 h-0.768c-3.356-0.01-4.475-0.012-7.276,1.17c0.044,0.219,0.067,0.442,0.067,0.668c0,1.607-1.408,2.179-2.084,2.453 c-0.208,0.084-0.808,0.326-0.963,0.447l-0.29,0.278c-1.933,1.84-5.166,4.917-5.166,7.935c0,7.193-4.393,9.745-8.154,9.745 c-4.054,0-6.778-3.266-6.778-8.127c0-2.082,0.801-3.781,1.444-5.146c0.478-1.013,0.89-1.887,0.887-2.608 c0-0.213,0.029-0.425,0.087-0.632c0.175-0.594,0.524-1.02,1.079-1.652c0.546-0.625,1.055-1.208,1.158-1.943 c0.079-0.558,0.358-1.062,0.786-1.42c1.258-1.053,3.503-3.339,4.162-4.014c0.312-0.33,0.589-0.563,0.923-0.837 c0.438-0.357,0.85-0.693,1.386-1.358l0.588-0.729c0.19-0.236,0.424-0.43,0.695-0.574c1.188-0.636,3.158-1.478,4-1.837l0.11-0.047 c0.384-0.164,0.673-0.286,0.804-0.35c0.186-0.093,0.393-0.161,0.605-0.198L23.67,4.8c0.293-0.715,0.907-1.255,1.787-1.558 C28.177,2.302,29.995,2,32.938,2l0.417,0.002C34.241,2.015,35.3,2.167,36.235,2.3c0.414,0.059,0.811,0.116,1.165,0.156 c0.459,0.067,0.951,0.233,1.963,0.605c0.216,0.079,0.451,0.193,0.711,0.346c0.305-0.114,0.634-0.163,0.965-0.138l0.66,0.052 c0.207,0.016,0.415,0.062,0.616,0.137l0.415,0.161c0.175,0.07,0.313,0.124,0.388,0.146c0.494,0.139,1.089,0.464,2.235,1.122 c0.385,0.22,0.726,0.423,1.029,0.605c0.316,0.189,0.718,0.43,0.984,0.563c0.651-0.344,1.426-0.361,2.084-0.028 c0.391,0.2,1.69,0.901,2.347,1.739c2.041,2.168,3.035,3.573,3.762,4.6c0.423,0.597,0.727,1.024,1.062,1.351l0.946,0.916 c0.707,0.098,1.34,0.534,1.682,1.174c0.186,0.351,0.311,0.701,0.413,1.001c0.075,0.215,0.136,0.395,0.235,0.597l0.184,0.369 c0.075,0.15,0.133,0.308,0.172,0.469l0.458,1.875c0.162,0.667,0.017,1.361-0.396,1.904c-0.128,0.205-0.334,0.682-0.355,0.828 c0,0.01-0.001,0.02-0.002,0.03c0.046,0.069,0.092,0.138,0.132,0.198c1.01,1.529,1.944,3.164,1.946,4.752v12.256 c0,0.698-0.329,1.368-0.881,1.792c-0.394,0.304-0.666,1.446-0.865,2.28c-0.444,1.863-0.993,4.164-3.182,5.099 c-0.61,0.779-1.168,1.614-1.71,2.423c-1.932,2.889-3.918,5.859-8.02,5.859c-0.856,0-1.431,0.098-1.733,0.176 c-0.01,0.932-0.6,1.772-1.475,2.095l-0.307,0.117C42.123,60.599,38.492,62,30.552,62z M6.761,44.33 c-0.067,0-0.128,0.02-0.163,0.054c-0.039,0.039-0.16,0.18-0.052,0.308c0.049,0.058,0.09,0.121,0.125,0.188 c1.515,2.958,3.114,4.66,4.188,5.566c0.59,0.59,1.459,1.244,2.379,1.935c0.561,0.421,1.125,0.846,1.539,1.177 C19.193,57.854,24.476,60,30.552,60c7.567,0,10.964-1.311,12.596-1.94l0.32-0.122c0.111-0.041,0.179-0.139,0.179-0.247 c0-0.435,0-0.928,0.527-1.448c0.526-0.453,1.734-0.704,3.206-0.704c3.033,0,4.568-2.296,6.347-4.955 c0.622-0.93,1.254-1.875,1.981-2.778c0.072-0.09,0.159-0.167,0.257-0.227c0.059-0.036,0.147-0.081,0.211-0.104 c1.289-0.46,1.696-1.795,2.169-3.78c0.312-1.311,0.635-2.665,1.59-3.401c0.065-0.05,0.101-0.125,0.101-0.207V27.831 c-0.001-1.063-0.817-2.442-1.615-3.651c-0.112-0.169-0.275-0.417-0.322-0.483c-0.184-0.259-0.246-0.604-0.147-0.906 c0.054-0.852,0.72-1.905,0.727-1.916c0.091-0.125,0.108-0.206,0.089-0.285l-0.457-1.869l-0.207-0.428 c-0.143-0.29-0.233-0.543-0.313-0.775c-0.122-0.355-0.203-0.574-0.307-0.769c-0.042-0.079-0.125-0.132-0.217-0.136 c-0.285,0.022-0.613-0.079-0.817-0.276l-1.221-1.182c-0.469-0.456-0.835-0.972-1.299-1.625c-0.701-0.99-1.656-2.339-3.624-4.426 c-0.026-0.028-0.051-0.057-0.073-0.087c-0.272-0.364-1.055-0.88-1.688-1.203c-0.094-0.047-0.214-0.031-0.296,0.045 c-0.192,0.179-0.483,0.309-0.741,0.294c-0.609-0.019-1.158-0.347-2.154-0.943c-0.294-0.177-0.622-0.373-0.994-0.585 c-0.807-0.462-1.497-0.852-1.791-0.934C42.454,5.655,42.249,5.581,42,5.482l-0.397-0.154l-0.717-0.063 c-0.068-0.008-0.139,0.019-0.188,0.062c-0.346,0.302-0.853,0.329-1.229,0.069c-0.418-0.291-0.663-0.408-0.793-0.457 c-0.681-0.25-1.265-0.46-1.535-0.5c-0.338-0.038-0.755-0.098-1.188-0.16c-0.875-0.125-1.868-0.267-2.617-0.277L32.942,4 c-2.726,0-4.322,0.265-6.833,1.133C25.512,5.338,25.49,5.6,25.477,5.756c-0.038,0.453-0.376,0.823-0.824,0.902l-3.557,0.624 c-0.22,0.097-0.542,0.235-0.968,0.417l-0.502-0.873l0.393,0.919c-0.747,0.319-2.73,1.166-3.843,1.762c0,0-0.08,0.065-0.08,0.065 l-0.588,0.729c-0.667,0.827-1.203,1.264-1.675,1.65c-0.293,0.241-0.503,0.417-0.711,0.638c-0.721,0.74-3.026,3.086-4.355,4.199 c-0.047,0.04-0.081,0.101-0.09,0.167c-0.185,1.322-0.983,2.237-1.625,2.972c-0.416,0.475-0.619,0.726-0.668,0.896 c-0.005,1.246-0.531,2.36-1.088,3.541c-0.616,1.308-1.253,2.66-1.253,4.294c0,3.722,1.875,6.127,4.778,6.127 c2.975,0,6.154-2.035,6.154-7.745c0-3.874,3.622-7.322,5.785-9.382l0.305-0.292c0.34-0.325,0.912-0.571,1.569-0.836 c0.722-0.293,0.843-0.407,0.843-0.603c0-0.247-0.064-0.48-0.197-0.713c-0.139-0.245-0.169-0.537-0.082-0.805 c0.087-0.268,0.284-0.487,0.541-0.602c3.853-1.732,5.131-1.731,8.95-1.718h0.765c2.646,0,5.82,1.011,7.908,1.958 c0.675,0.306,1.235,0.54,1.718,0.742l0.659,0.272c1.567,0.646,1.944,0.823,3.257,2.005c0.076,0.069,0.186,0.085,0.279,0.045 c0.219-0.214,0.56-0.342,0.862-0.3c0.303,0.039,0.607,0.191,0.765,0.453c1.705,2.839,1.832,4.668,1.886,5.449 c0.008,0.123,0.016,0.222,0.039,0.373l1.587,7.685l0.821,1.369c0.045,0.073,0.125,0.12,0.212,0.124 c0.277,0.012,0.538,0.138,0.718,0.349c0.18,0.211,0.265,0.488,0.233,0.764c-0.214,1.865-0.86,3.033-1.332,3.886 c-0.312,0.564-0.576,1.043-0.636,1.537c-0.256,2.167-0.403,2.91-0.82,3.336c-0.083,0.136-0.113,0.276-0.222,0.842l-0.026,0.135 c-0.041,0.215-0.082,0.425-0.114,0.56c-0.02,0.083-0.05,0.163-0.09,0.237c-1.548,2.907-6.368,9.874-17.645,11.774 c-0.055,0.009-0.11,0.014-0.166,0.014h-4.088c-5.909,0-10.839-2.93-14.653-8.709c-0.064-0.097-0.179-0.141-0.295-0.106 c-0.106,0.032-0.183,0.136-0.183,0.251c0,0.075,0.017,0.228,0.098,0.526c0.108,0.401-0.042,0.828-0.379,1.072 c-0.336,0.244-0.788,0.254-1.136,0.025c-1.579-1.039-3.503-2.5-5.72-4.345C6.923,44.354,6.838,44.33,6.761,44.33z M50.177,40.737 c-0.001,0.001-0.003,0.003-0.005,0.005C50.174,40.74,50.176,40.738,50.177,40.737z"/><path fill="#8d6c9f" d="M47.312,39.193c-0.094,0-0.19-0.014-0.286-0.042l-1.917-0.57 c-0.529-0.157-0.831-0.714-0.673-1.244c0.157-0.529,0.713-0.833,1.244-0.673l1.917,0.57c0.529,0.157,0.831,0.714,0.673,1.244 C48.141,38.912,47.743,39.193,47.312,39.193z"/><path fill="#8d6c9f" d="M45.02,43.932c-0.198,0-0.397-0.059-0.572-0.181l-1.639-1.146 c-0.453-0.316-0.563-0.94-0.246-1.393c0.316-0.452,0.939-0.562,1.393-0.246l1.639,1.146c0.453,0.316,0.563,0.94,0.246,1.393 C45.646,43.783,45.335,43.932,45.02,43.932z"/><path fill="#8d6c9f" d="M41.356,47.704c-0.305,0-0.605-0.139-0.802-0.401l-1.198-1.602 c-0.331-0.442-0.24-1.069,0.202-1.4c0.443-0.331,1.069-0.239,1.4,0.202l1.198,1.602c0.331,0.442,0.24,1.069-0.202,1.4 C41.774,47.639,41.564,47.704,41.356,47.704z"/><path fill="#8d6c9f" d="M36.696,50.15c-0.419,0-0.809-0.266-0.949-0.685l-0.632-1.898 c-0.174-0.524,0.109-1.09,0.633-1.265c0.526-0.175,1.09,0.11,1.265,0.633l0.632,1.898c0.174,0.524-0.109,1.09-0.633,1.265 C36.907,50.134,36.8,50.15,36.696,50.15z"/><path fill="#8d6c9f" d="M31.5,51c-0.552,0-1-0.448-1-1v-2c0-0.552,0.448-1,1-1s1,0.448,1,1v2 C32.5,50.552,32.052,51,31.5,51z"/><g><path fill="#8d6c9f" d="M7.057,31.085c-0.071,0-0.143-0.007-0.214-0.023c-0.54-0.118-0.881-0.651-0.764-1.19 c0.133-0.608,0.241-1.244,0.354-1.905l0.049-0.284c0.262-1.529,0.726-3.061,1.38-4.554c0.222-0.505,0.812-0.735,1.317-0.515 c0.506,0.222,0.736,0.812,0.515,1.317c-0.589,1.344-1.006,2.72-1.241,4.089l-0.048,0.282c-0.119,0.693-0.232,1.358-0.372,1.995 C7.931,30.767,7.517,31.085,7.057,31.085z"/></g></svg>