<svg xmlns="http://www.w3.org/2000/svg"  viewBox="0 0 64 64" width="64px" height="64px"><path fill="#cda1a7" d="M5,8H3c-1.105,0-2,0.895-2,2v40c0,1.105,0.895,2,2,2h21.22c1.046,0,1.958,0.712,2.212,1.727v0.001 C26.766,55.063,27.966,56,29.342,56h3.315c1.377,0,2.577-0.937,2.91-2.272v-0.001C35.822,52.712,36.734,52,37.78,52H59 c1.105,0,2-0.895,2-2V10c0-1.105-0.895-2-2-2h-2H5z"/><path fill="#faefde" d="M31,52L31,52c0-2.209-1.791-4-4-4H7c-1.105,0-2-0.895-2-2V8c0-1.105,0.895-2,2-2h20 c2.209,0,4,1.791,4,4v2.833V52z M31,36V10c0-2.209,1.791-4,4-4h20c1.105,0,2,0.895,2,2v38c0,1.105-0.895,2-2,2H35 c-2.209,0-4,1.791-4,4l0,0V36z"/><path fill="#efd8be" d="M37,6h-2c-2.209,0-4,1.791-4,4v41l2.333-3H37V6z"/><path fill="#fff7f0" d="M5,6h5v42H5V6z"/><path fill="#8d6c9f" d="M59,7h-1.184C57.402,5.839,56.302,5,55,5H35c-1.641,0-3.088,0.806-4,2.031 C30.088,5.806,28.641,5,27,5H7C5.698,5,4.598,5.839,4.184,7H3c-1.654,0-3,1.346-3,3v40c0,1.654,1.346,3,3,3h21.22 c0.589,0,1.1,0.398,1.242,0.97c0.445,1.784,2.041,3.03,3.88,3.03h3.315c1.839,0,3.435-1.246,3.881-3.031 C36.681,53.398,37.191,53,37.78,53H59c1.654,0,3-1.346,3-3V10C62,8.346,60.654,7,59,7z M7,7h20c1.654,0,3,1.346,3,3v2.833V36 c0,0.553,0.448,1,1,1s1-0.447,1-1V12.833V10c0-1.654,1.346-3,3-3h20c0.551,0,1,0.448,1,1v38c0,0.552-0.449,1-1,1H35 c-1.641,0-3.088,0.806-4,2.031C30.088,47.806,28.641,47,27,47H7c-0.551,0-1-0.448-1-1V8C6,7.448,6.449,7,7,7z M60,50 c0,0.552-0.449,1-1,1H37.78c-1.508,0-2.817,1.021-3.183,2.485C34.375,54.377,33.577,55,32.658,55h-3.315 c-0.919,0-1.717-0.623-1.94-1.516C27.037,52.021,25.728,51,24.22,51H3c-0.551,0-1-0.448-1-1V10c0-0.552,0.449-1,1-1h1v37 c0,1.654,1.346,3,3,3h20c1.654,0,3,1.346,3,3c0,0.553,0.448,1,1,1s1-0.447,1-1c0-1.654,1.346-3,3-3h20c1.654,0,3-1.346,3-3V9h1 c0.551,0,1,0.448,1,1V50z"/><path fill="#8d6c9f" d="M31,45c0.552,0,1-0.447,1-1v-4c0-0.553-0.448-1-1-1s-1,0.447-1,1v4C30,44.553,30.448,45,31,45z M10,15c0.552,0,1-0.447,1-1v-2c0-0.553-0.448-1-1-1s-1,0.447-1,1v2C9,14.553,9.448,15,10,15z M15,15c0.552,0,1-0.447,1-1v-2 c0-0.553-0.448-1-1-1s-1,0.447-1,1v2C14,14.553,14.448,15,15,15z M20,15c0.552,0,1-0.447,1-1v-2c0-0.553-0.448-1-1-1s-1,0.447-1,1 v2C19,14.553,19.448,15,20,15z M25,15c0.552,0,1-0.447,1-1v-2c0-0.553-0.448-1-1-1s-1,0.447-1,1v2C24,14.553,24.448,15,25,15z M37,15c0.552,0,1-0.447,1-1v-2c0-0.553-0.448-1-1-1s-1,0.447-1,1v2C36,14.553,36.448,15,37,15z M42,15c0.552,0,1-0.447,1-1v-2 c0-0.553-0.448-1-1-1s-1,0.447-1,1v2C41,14.553,41.448,15,42,15z M47,15c0.552,0,1-0.447,1-1v-2c0-0.553-0.448-1-1-1s-1,0.447-1,1 v2C46,14.553,46.448,15,47,15z M52,15c0.552,0,1-0.447,1-1v-2c0-0.553-0.448-1-1-1s-1,0.447-1,1v2C51,14.553,51.448,15,52,15z"/><path fill="#bf9e99" d="M43.126,41.813l0.01-1.233c0.015-1.751,1.445-3.151,3.196-3.129l0,0 c1.551,0.021,2.866,1.16,3.108,2.694l0.297,1.766l0,0c0.012-1.619,1.334-2.914,2.953-2.894c0.001,0,0.002,0,0.003,0l-0.207-0.003 c1.38,0.027,2.559,1.014,2.831,2.369l0.254,1.304l-0.04,0.461c0.01-1.461,1.203-2.631,2.664-2.613c0.002,0,0.003,0,0.005,0l0,0 c1.41,0.015,2.576,1.115,2.674,2.523l0.503,7.826c0.329,5.253-3.661,9.755-8.911,10.057c-0.22,0.013-0.441,0.018-0.661,0.015 l-8.777-0.116c-2.797-0.042-5.414-1.411-7.049-3.689l-8.865-12.439c-0.09-0.126-0.138-0.277-0.136-0.432l0,0 c0.014-1.696,1.4-3.052,3.095-3.029c0.593,0.008,1.171,0.187,1.666,0.516l5.51,3.601l0.176-18.248 c0.015-1.616,1.335-2.908,2.951-2.889l0,0c1.619,0.02,2.921,1.349,2.909,2.968c0,0.001,0,0.002,0,0.003L43.186,40.13"/><path fill="#ab8d89" d="M38.818,56.061l-0.042,3.988l-10.753-14.65l0,0c0.009-0.606,0.508-1.09,1.114-1.081 c0.311,0.005,0.606,0.142,0.81,0.376l8.156,9.441C38.567,54.669,38.821,55.354,38.818,56.061z"/><path fill="#8d6c9f" d="M52.646,62.006c-0.172,0-0.357-0.002-0.503-0.004L51.991,62H43 c-2.928-0.036-5.694-1.585-7.603-4.249l-8.203-11.159c-0.021-0.029-1.2-2.003-1.194-2.602c0.012-1.08,0.426-2.085,1.166-2.832 C27.908,40.41,28.9,40,29.965,40c0.015,0,0.03,0,0.046,0c0.762,0.008,1.561,0.505,2.379,1.058l0.163,0.109L36,43.234L36,27 c0.026-2.182,1.843-4,3.975-4c0.011,0,0.022,0,0.034,0c1.028,0.01,2.049,0.445,2.804,1.194c0.765,0.759,1.197,1.785,1.187,2.815 v10.483C44.579,37.176,45.257,37,46,37c1.499,0,2.658,0.678,3.353,1.913C50.039,38.333,50.95,38,52,38 c1.973,0,3.217,1.406,3.73,2.72C56.32,40.312,57.075,40,58,40c2.664,0,4,2.564,4,4v6.971c0.35,6.06-3.406,10.695-8.94,11.027 C52.965,62.004,52.811,62.006,52.646,62.006z M52,60l0.168,0.002c0.242,0.004,0.612,0.011,0.774,0 c4.385-0.264,7.355-4.024,7.06-8.942C60,51.04,60,51.02,60,51v-7c0-0.482-0.602-2-2-2c-1.342,0-2.101,1.438-2.108,1.453 c-0.212,0.409-0.677,0.621-1.126,0.516C54.317,43.859,54,43.461,54,43v-1c0-0.482-0.602-2-2-2c-1.787,0-1.994,1.405-2,2.01 C49.995,42.559,49.548,43,49,43c-0.001,0-0.003,0-0.005,0C48.445,42.997,48,42.551,48,42v-0.92C47.649,39,46.454,39,46,39 c-1.183,0-1.986,0.809-2,2.012C43.994,41.56,43.547,42,43,42c-0.002,0-0.004,0-0.006,0C42.444,41.997,42,41.55,42,41V27 c0.005-0.504-0.212-1.005-0.596-1.387c-0.388-0.385-0.903-0.608-1.414-0.613c-0.005,0-0.01,0-0.015,0 c-1.023,0-1.962,0.955-1.975,2.012L38,45c0,0.36-0.194,0.692-0.507,0.87c-0.313,0.178-0.698,0.173-1.007-0.013l-5.214-3.142 c-0.251-0.17-1.016-0.687-1.292-0.717c-0.541,0.018-1.025,0.196-1.393,0.567c-0.335,0.339-0.538,0.789-0.579,1.282 c0.178,0.396,0.714,1.417,0.831,1.605l8.178,11.123c1.542,2.15,3.725,3.395,5.997,3.423H52z"/></svg>