<svg xmlns="http://www.w3.org/2000/svg"  viewBox="0 0 64 64" width="64px" height="64px"><path fill="#c2cde7" d="M61,59.38a1,1,0,0,1-1,1H4a1,1,0,0,1-1-1v-8A9.37,9.37,0,0,1,8.3,43l14.07-6.73c2.55,3.21,5.91,5.5,9.63,5.5s7.08-2.29,9.63-5.5L55.7,43A9.37,9.37,0,0,1,61,51.41Z"/><path fill="#acb7d0" d="M57,56H7a4,4,0,0,0-4,4H3a1,1,0,0,0,1,1H60a1,1,0,0,0,1-1h0A4,4,0,0,0,57,56Z"/><path fill="#faefde" d="M19.07,28.13h0c-.31,0-1.31-.82-1.83-2.77s-.05-3.27.19-3.33c0,0,1.9-.33,1.92-.71a12.86,12.86,0,0,1,.18-1.63,6.09,6.09,0,0,0-.08-1.73,22.42,22.42,0,0,1-.13-5.44c.34-3.38,2.32-5.39,5.31-5.39a1.06,1.06,0,0,0,.63-.21A12.77,12.77,0,0,1,32,5h1.06c6.42,0,11,3.28,12.95,9.07-.73-.08-.49.43-1,.93s-1.78.7-1.3,2a12.8,12.8,0,0,1,1,4.31c0,.38,1.9-.29,1.92-.29.26.09.72,2.37.19,4.33s-1.52,2.77-1.83,2.77a1.09,1.09,0,0,0-1,.76c-1.78,6-6.44,12.05-11.92,12.05S21.86,34.87,20.08,28.88A1.06,1.06,0,0,0,19.07,28.13Z"/><path fill="#cda1a7" d="M19.45,18A7.47,7.47,0,0,0,26,13c3,1,4,4,18,3,1.39-.1,1.6.39,2,0s-.72-2,0-1.93C44.11,8.28,39.47,5,33.06,5H32a12.77,12.77,0,0,0-6.75,1.9,1.06,1.06,0,0,1-.63.21c-3,0-5,2-5.31,5.39a22.42,22.42,0,0,0,.13,5.44Z"/><path fill="#fff7f0" d="M32,40.93c-3.18,0-6.08-2-8.3-4.93H21l8,25h6l8-25H40.3C38.08,38.89,35.18,40.93,32,40.93Z"/><path fill="#ed7899" d="M36 61L28 61 27.05 53.66 30 47 34 47 36.97 53.78 36 61zM28 41L36 41 34 47 30 47 28 41z"/><path fill="#d6dff2" d="M21 36.56C21 37 29 61 29 61H24.56L16 49l3-4-1-8zM43 36.56C43 37 34 61 34 61h4.44L47 49l-2-4 1-8z"/><path fill="#8d6c9f" d="M47 54a1 1 0 0 0-1 1v2a1 1 0 0 0 2 0V55A1 1 0 0 0 47 54zM52 54a1 1 0 0 0-1 1v2a1 1 0 0 0 2 0V55A1 1 0 0 0 52 54zM56 55v2a1 1 0 0 0 2 0V55a1 1 0 0 0-2 0zM17 54a1 1 0 0 0-1 1v2a1 1 0 0 0 2 0V55A1 1 0 0 0 17 54zM12 54a1 1 0 0 0-1 1v2a1 1 0 0 0 2 0V55A1 1 0 0 0 12 54zM7 54a1 1 0 0 0-1 1v2a1 1 0 0 0 2 0V55A1 1 0 0 0 7 54z"/><path fill="#8d6c9f" d="M55.75,41.38,42.48,35A23.14,23.14,0,0,0,45,29.73c1.23-.46,2.35-2,2.88-4a7.49,7.49,0,0,0,.18-3.34,2.67,2.67,0,0,0-1.79-2.26,2,2,0,0,0-.43-.07,15.31,15.31,0,0,0-.92-3.44l0-.11a5.28,5.28,0,0,1,1.38.36,1,1,0,0,0,1.36-1.14C46,8.41,40.56,4,33,4H32a14.58,14.58,0,0,0-7.31,2C21,6.14,18.42,8.76,18,12.9a23,23,0,0,0,.13,5.6,7.13,7.13,0,0,1,.09,1q0,.28-.09.57a1.9,1.9,0,0,0-.44.07,2.67,2.67,0,0,0-1.79,2.26,7.49,7.49,0,0,0,.18,3.34c.54,2,1.66,3.5,2.88,4A23.14,23.14,0,0,0,21.52,35L8.25,41.38A11.05,11.05,0,0,0,2,51.3V59a3,3,0,0,0,3,3H59a3,3,0,0,0,3-3V51.3A11.05,11.05,0,0,0,55.75,41.38ZM44.2,45.6,46.73,49l-9.1,11H36.06l7.7-22.14,1.17.56L44,44.86A1,1,0,0,0,44.2,45.6ZM25.5,60,17.25,49l2.55-3.4a1,1,0,0,0,.19-.74l-.92-6.44,1.17-.56L27.94,60Zm4.44-.33-2.13-6.12a1,1,0,0,0,.08-.1L30.62,48h2.76l2.72,5.45a1,1,0,0,0,.08.11l-2.13,6.11A1,1,0,0,0,34,60H30A1,1,0,0,0,29.94,59.67ZM19.77,27.88h0c-.29,0-1.24-.78-1.73-2.62a5.56,5.56,0,0,1-.15-2.42c.1-.51.29-.72.33-.73a.61.61,0,0,1,.27.12A1,1,0,0,0,20,21.43a12.12,12.12,0,0,1,.17-1.54,5.7,5.7,0,0,0-.08-1.64A21.23,21.23,0,0,1,20,13.1C20.31,9.91,22.19,8,25,8a1,1,0,0,0,.6-.2A12.08,12.08,0,0,1,32,6h1c6.07,0,10.45,3.1,12.25,8.58a2.29,2.29,0,0,0-1.9.48,2,2,0,0,0-.29,2.3,12.09,12.09,0,0,1,.9,4.07,1,1,0,0,0,1.54.79.63.63,0,0,1,.27-.12c.06,0,.24.23.34.73A5.56,5.56,0,0,1,46,25.26c-.49,1.84-1.44,2.62-1.73,2.62h0a1,1,0,0,0-1,.71C41.59,34.26,37.18,40,32,40s-9.59-5.74-11.27-11.4A1,1,0,0,0,19.77,27.88ZM32,42c3.6,0,6.84-2.21,9.3-5.31l.65.31-4.85,14-2-4,.87-2.61a1,1,0,0,0-1.9-.63L33.28,46H30.72l-.77-2.32a1,1,0,0,0-1.9.63l.87,2.61-2,4L22.06,37l.65-.31C25.16,39.79,28.4,42,32,42ZM4,59V51.3a9,9,0,0,1,5.12-8.12l8.06-3.86.77,5.4L15.2,48.4a1,1,0,0,0,0,1.2L23,60H5A1,1,0,0,1,4,59Zm56,0a1,1,0,0,1-1,1H40.29l8.48-10.37a1,1,0,0,0,0-1.23L46,44.73l.77-5.4,8.06,3.86A9,9,0,0,1,60,51.3Z"/><path fill="#8d6c9f" d="M27.92,14.88A21.1,21.1,0,0,0,37.11,17h2.55a1,1,0,0,0,0-2H37.11a19.1,19.1,0,0,1-8.32-1.92l-1.56-.76a2,2,0,0,0-2.55.7l-1.6,2.43a1,1,0,1,0,1.67,1.1l1.6-2.43Z"/></svg>