<svg xmlns="http://www.w3.org/2000/svg"  viewBox="0 0 64 64" width="64px" height="64px"><rect width="4" height="10" x="30" y="3" fill="#f9e3ae"/><rect width="4" height="10" x="30" y="51" fill="#f9e3ae"/><rect width="4" height="10" x="30" y="27" fill="#f9e3ae"/><path fill="#8d6c9f" d="M34,14h-4c-0.552,0-1-0.448-1-1V3c0-0.552,0.448-1,1-1h4c0.553,0,1,0.448,1,1v10 C35,13.552,34.553,14,34,14z M31,12h2V4h-2V12z"/><path fill="#8d6c9f" d="M34,62h-4c-0.552,0-1-0.447-1-1V51c0-0.553,0.448-1,1-1h4c0.553,0,1,0.447,1,1v10 C35,61.553,34.553,62,34,62z M31,60h2v-8h-2V60z"/><path fill="#8d6c9f" d="M34,38h-4c-0.552,0-1-0.447-1-1V27c0-0.552,0.448-1,1-1h4c0.553,0,1,0.448,1,1v10 C35,37.553,34.553,38,34,38z M31,36h2v-8h-2V36z"/><g><path fill="#f283a5" d="M23,10v26.08c0,1.27-0.39,2.44-1.07,3.41c-1.07,1.56-2.88,2.59-4.93,2.59h-6 c-2.05,0-3.86-1.03-4.93-2.59C5.39,38.52,5,37.35,5,36.08V10.15c0-0.64,0.36-1.54,1-2.49C7.49,5.45,10.51,3,14.03,3 c3.48,0,6.49,2.45,7.97,4.61C22.64,8.53,23,9.4,23,10z"/><path fill="#ed7899" d="M21.93,39.49c-1.07,1.56-2.88,2.59-4.93,2.59h-6c-2.05,0-3.86-1.03-4.93-2.59 C6.3,38.63,7.08,38,8,38h12C20.92,38,21.7,38.63,21.93,39.49z"/><path fill="#bbdef9" d="M23,17l-0.47,0.7l-0.73,1.1L19,23H9l-1.01-1.51l-0.92-1.38L5,17c2.35-1.03,4.7-1.66,7.05-1.88 c0.8-0.08,1.6-0.11,2.4-0.09c1.04,0.02,2.07,0.12,3.11,0.31c1.46,0.24,2.92,0.65,4.38,1.23C22.29,16.7,22.65,16.84,23,17z"/><path fill="#e3f2ff" d="M22.53,17.7l-0.73,1.1L17.6,23H10v-0.1l7.56-7.56c1.46,0.24,2.92,0.65,4.38,1.23L22.53,17.7z"/><path fill="#e3f2ff" d="M14.45,15.03l-6.46,6.46l-0.92-1.38l4.98-4.99C12.85,15.04,13.65,15.01,14.45,15.03z"/><path fill="#f98cb3" d="M22,7.61V8c0,1.1-0.9,2-2,2H8c-1.1,0-2-0.9-2-2V7.66C7.49,5.45,10.51,3,14.03,3 C17.51,3,20.52,5.45,22,7.61z"/><path fill="#8d6c9f" d="M17,43.075h-6c-3.86,0-7-3.141-7-7V10.153C4,7.398,8.539,2,14.025,2C19.484,2,24,7.297,24,10 v26.075C24,39.935,20.86,43.075,17,43.075z M14.025,4C9.42,4,6,8.711,6,10.153v25.922c0,2.757,2.243,5,5,5h6c2.757,0,5-2.243,5-5 V10C22,8.53,18.412,4,14.025,4z"/><path fill="#8d6c9f" d="M19,24H9c-0.334,0-0.646-0.167-0.832-0.445l-4-6c-0.164-0.246-0.211-0.552-0.128-0.835 c0.083-0.284,0.287-0.516,0.558-0.635c6.238-2.743,12.566-2.743,18.805,0c0.271,0.119,0.475,0.352,0.558,0.635 c0.083,0.283,0.036,0.589-0.128,0.835l-4,6C19.646,23.833,19.334,24,19,24z M9.535,22h8.93l3.026-4.539 c-4.977-1.902-10.006-1.902-14.982,0L9.535,22z"/><path fill="#8d6c9f" d="M17,11V9c0-0.552,0.448-1,1-1l0,0c0.552,0,1,0.448,1,1v2c0,0.552-0.448,1-1,1l0,0 C17.448,12,17,11.552,17,11z"/><path fill="#8d6c9f" d="M13,11V9c0-0.552,0.448-1,1-1l0,0c0.552,0,1,0.448,1,1v2c0,0.552-0.448,1-1,1l0,0 C13.448,12,13,11.552,13,11z"/><path fill="#8d6c9f" d="M9,11V9c0-0.552,0.448-1,1-1l0,0c0.552,0,1,0.448,1,1v2c0,0.552-0.448,1-1,1l0,0 C9.448,12,9,11.552,9,11z"/><polygon fill="#bbdef9" points="9,31 19,31 18,37 10,37"/><path fill="#8d6c9f" d="M18,38h-8c-0.489,0-0.906-0.354-0.986-0.836l-1-6c-0.048-0.29,0.033-0.586,0.223-0.811 C8.427,30.129,8.706,30,9,30h10c0.294,0,0.573,0.129,0.763,0.354c0.19,0.225,0.271,0.521,0.223,0.811l-1,6 C18.906,37.646,18.489,38,18,38z M10.847,36h6.306l0.667-4h-7.639L10.847,36z"/><path fill="#8d6c9f" d="M19,32H9c-0.552,0-1-0.448-1-1v-8c0-0.552,0.448-1,1-1h10c0.552,0,1,0.448,1,1v8 C20,31.552,19.552,32,19,32z M10,30h8v-6h-8V30z"/></g><g><path fill="#ace3ff" d="M53,61.075h-6c-3.314,0-6-2.686-6-6V29.153C41,27,45,22,50.025,22C55,22,59,27,59,29v26.075 C59,58.389,56.314,61.075,53,61.075z"/><path fill="#85cbf8" d="M57.93,58.49c-1.07,1.56-2.88,2.59-4.93,2.59h-6c-2.05,0-3.86-1.03-4.93-2.59 C42.3,57.63,43.08,57,44,57h12C56.92,57,57.7,57.63,57.93,58.49z"/><path fill="#e3f2ff" d="M58,26.61V27c0,1.1-0.9,2-2,2H44c-1.1,0-2-0.9-2-2v-0.34c1.49-2.21,4.51-4.66,8.03-4.66 C53.51,22,56.52,24.45,58,26.61z"/><path fill="#8d6c9f" d="M53,62.075h-6c-3.859,0-7-3.141-7-7V29.153C40,26.398,44.539,21,50.025,21 C55.484,21,60,26.297,60,29v26.075C60,58.935,56.859,62.075,53,62.075z M50.025,23C45.42,23,42,27.711,42,29.153v25.922 c0,2.757,2.243,5,5,5h6c2.757,0,5-2.243,5-5V29C58,27.53,54.412,23,50.025,23z"/><path fill="#bbdef9" d="M59,36l-0.47,0.7l-0.73,1.1L55,42H45l-1.01-1.51l-0.92-1.38L41,36c2.35-1.03,4.7-1.66,7.05-1.88 c0.8-0.08,1.6-0.11,2.4-0.09c1.04,0.02,2.07,0.12,3.11,0.31c1.46,0.24,2.92,0.65,4.38,1.23C58.29,35.7,58.65,35.84,59,36z"/><path fill="#e3f2ff" d="M58.53,36.7l-0.73,1.1L53.6,42H46v-0.1l7.56-7.56c1.46,0.24,2.92,0.65,4.38,1.23L58.53,36.7z"/><path fill="#e3f2ff" d="M50.45,34.03l-6.46,6.46l-0.92-1.38l4.98-4.99C48.85,34.04,49.65,34.01,50.45,34.03z"/><path fill="#8d6c9f" d="M55,43H45c-0.334,0-0.646-0.167-0.832-0.445l-4-6c-0.164-0.246-0.211-0.552-0.128-0.835 c0.083-0.284,0.287-0.517,0.558-0.635c6.238-2.744,12.566-2.744,18.805,0c0.271,0.118,0.475,0.351,0.558,0.635 c0.083,0.283,0.036,0.589-0.128,0.835l-4,6C55.646,42.833,55.334,43,55,43z M45.535,41h8.93l3.026-4.539 c-4.977-1.902-10.006-1.902-14.982,0L45.535,41z"/><path fill="#8d6c9f" d="M53,30v-2c0-0.552,0.448-1,1-1l0,0c0.552,0,1,0.448,1,1v2c0,0.552-0.448,1-1,1l0,0 C53.448,31,53,30.552,53,30z"/><path fill="#8d6c9f" d="M49,30v-2c0-0.552,0.448-1,1-1l0,0c0.552,0,1,0.448,1,1v2c0,0.552-0.448,1-1,1l0,0 C49.448,31,49,30.552,49,30z"/><path fill="#8d6c9f" d="M45,30v-2c0-0.552,0.448-1,1-1l0,0c0.552,0,1,0.448,1,1v2c0,0.552-0.448,1-1,1l0,0 C45.448,31,45,30.552,45,30z"/><path fill="#8d6c9f" d="M54,57h-8c-0.489,0-0.906-0.354-0.986-0.836l-1-6c-0.049-0.29,0.033-0.586,0.224-0.811 C44.427,49.129,44.706,49,45,49h10c0.294,0,0.573,0.129,0.763,0.354c0.19,0.225,0.272,0.521,0.224,0.811l-1,6 C54.906,56.646,54.489,57,54,57z M46.847,55h6.307l0.666-4h-7.639L46.847,55z"/><path fill="#8d6c9f" d="M55,51H45c-0.553,0-1-0.447-1-1v-8c0-0.553,0.447-1,1-1h10c0.553,0,1,0.447,1,1v8 C56,50.553,55.553,51,55,51z M46,49h8v-6h-8V49z"/></g></svg>