<svg xmlns="http://www.w3.org/2000/svg"  viewBox="0 0 64 64" width="64px" height="64px"><path fill="#ffeb9b" d="M16.75,32.488c-2.171-1.25-4.056-3.058-5.4-5.382c-1.342-2.323-1.966-4.86-1.964-7.363 C4.975,22.29,2,27.043,2,32.5s2.975,10.21,7.386,12.757c-0.001-2.503,0.622-5.039,1.964-7.363c1.342-2.323,3.229-4.132,5.4-5.382 c0.008-0.004,0.016-0.008,0.023-0.012C16.766,32.496,16.758,32.492,16.75,32.488z"/><path fill="#72caaf" d="M26.51,52.633c-1.368-2.327-2.002-4.868-1.998-7.376c0-0.005,0-0.009,0-0.013 c-0.004,0.003-0.008,0.005-0.012,0.007c-2.208,1.257-4.765,1.988-7.5,1.988c-2.731,0-5.283-0.729-7.489-1.982 C9.514,50.349,12.19,55.3,17,58.029c4.81,2.728,10.511,2.53,15-0.013C29.794,56.766,27.875,54.957,26.51,52.633z"/><path fill="#97e0bb" d="M17.025,32.5c-0.008,0.004-0.016,0.008-0.023,0.012c-2.208,1.25-4.125,3.058-5.491,5.382 c-1.365,2.323-1.999,4.86-1.998,7.363c2.205,1.253,4.756,1.982,7.488,1.982c2.735,0,5.292-0.732,7.5-1.988 c0.004-0.003,0.008-0.005,0.012-0.007C24.525,40.163,27.199,35.224,32,32.5C27.199,35.224,21.51,35.03,17.025,32.5z"/><path fill="#85cbf8" d="M47,47.239c-2.735,0-5.292-0.732-7.5-1.988c-0.004-0.003-0.008-0.005-0.012-0.007 c0,0.004,0,0.009,0,0.013c0.004,2.507-0.63,5.049-1.998,7.376c-1.365,2.323-3.284,4.132-5.49,5.382 c4.489,2.543,10.19,2.741,15,0.013c4.81-2.728,7.486-7.68,7.489-12.771C52.283,46.51,49.731,47.239,47,47.239z"/><path fill="#5dbc9d" d="M39.488,44.994C35.015,42.392,32,37.553,32,32c0,5.553-3.015,10.392-7.488,12.994 c0,0.004,0,0.01,0,0.014c-0.004,2.556,0.63,5.148,1.998,7.521c1.365,2.369,3.284,4.212,5.49,5.488 c2.206-1.275,4.125-3.118,5.49-5.488c1.368-2.373,2.002-4.963,1.998-7.521C39.488,45.003,39.488,44.999,39.488,44.994z"/><path fill="#a1a1e2" d="M54.489,19.743c0.001,2.503-0.633,5.039-1.998,7.363c-1.365,2.323-3.284,4.132-5.491,5.382 c-0.008,0.004-0.016,0.008-0.023,0.012c0.008,0.004,0.016,0.008,0.023,0.012c2.208,1.25,4.125,3.058,5.491,5.382 c1.365,2.323,1.999,4.86,1.998,7.363C58.974,42.71,62,37.957,62,32.5S58.974,22.29,54.489,19.743z"/><path fill="#7bbeeb" d="M52.49,37.894c-1.365-2.323-3.284-4.132-5.491-5.382c-0.008-0.004-0.016-0.008-0.023-0.012 C42.49,35.03,36.8,35.224,32,32.5c4.801,2.724,7.475,7.663,7.488,12.744c0.004,0.003,0.008,0.005,0.012,0.007 c2.208,1.257,4.765,1.988,7.5,1.988c2.731,0,5.283-0.729,7.489-1.982C54.49,42.754,53.856,40.218,52.49,37.894z"/><path fill="#f283a5" d="M47,5.971c-4.81-2.728-10.511-2.53-15,0.013c2.206,1.25,4.125,3.058,5.49,5.382 c1.368,2.327,2.002,4.869,1.998,7.376c0,0.005,0,0.009,0,0.013c0.004-0.003,0.008-0.005,0.012-0.007 c2.208-1.257,4.765-1.988,7.5-1.988c2.731,0,5.283,0.729,7.489,1.982C54.486,13.651,51.81,8.7,47,5.971z"/><path fill="#ed7899" d="M47,17.761c-2.735,0-5.292,0.732-7.5,1.988c-0.004,0.003-0.008,0.005-0.012,0.007 C39.475,24.837,36.801,29.776,32,32.5c4.801-2.724,10.49-2.53,14.975,0c0.008-0.004,0.016-0.008,0.023-0.012 c2.208-1.25,4.125-3.058,5.491-5.382c1.365-2.323,1.999-4.86,1.998-7.363C52.283,18.49,49.731,17.761,47,17.761z"/><path fill="#fbd" d="M17,5.971c-4.81,2.728-7.486,7.68-7.489,12.771c2.206-1.251,4.758-1.98,7.489-1.98 c2.735,0,5.292,0.732,7.5,1.988c0.004,0.003,0.008,0.005,0.012,0.007c0-0.005,0-0.009,0-0.013c-0.004-2.507,0.63-5.049,1.998-7.376 c1.365-2.323,3.284-4.132,5.49-5.382C27.511,3.441,21.81,3.243,17,5.971z"/><path fill="#f9dd8f" d="M24.512,19.756c-0.004-0.003-0.008-0.005-0.012-0.007c-2.208-1.257-4.765-1.988-7.5-1.988 c-2.731,0-5.283,0.729-7.489,1.982c-0.001,2.503,0.633,5.039,1.998,7.363s3.284,4.132,5.491,5.382 c0.008,0.004,0.016,0.008,0.023,0.012c4.485-2.53,10.175-2.724,14.975,0C27.199,29.776,24.525,24.837,24.512,19.756z"/><path fill="#f7a1c8" d="M37.49,11.472C36.125,9.103,34.206,7.259,32,5.984c-2.206,1.275-4.125,3.118-5.49,5.488 c-1.368,2.373-2.002,4.965-1.998,7.521c0,0.005,0,0.01,0,0.014C28.985,21.608,32,26.447,32,32c0-5.553,3.015-10.392,7.488-12.994 c0-0.005,0-0.01,0-0.014C39.492,16.435,38.858,13.845,37.49,11.472z"/><path fill="#ffeb9b" d="M25,45c4.181-2.602,7-7.444,7-13C27.511,34.779,25.011,39.817,25,45z M39,45 c-0.011-5.183-2.511-10.221-7-13C32,37.556,34.819,42.398,39,45z"/><path fill="#ffeb9b" d="M46.975,32C42.49,29.433,36.8,29.236,32,32C36.801,34.764,42.49,34.567,46.975,32z M17.025,32 C21.51,34.567,27.2,34.764,32,32C27.199,29.236,21.51,29.433,17.025,32z"/><path fill="#ffeb9b" d="M25,19c0.011,5.183,2.511,10.221,7,13C32,26.444,29.181,21.602,25,19z M39,19 c-4.181,2.602-7,7.444-7,13C36.489,29.221,38.989,24.183,39,19z"/><path fill="#8d6c9f" d="M38.46,16c-0.439,0-0.841-0.291-0.963-0.734c-0.267-0.967-0.641-1.908-1.111-2.799 c-0.258-0.488-0.071-1.093,0.417-1.351c0.489-0.259,1.093-0.072,1.352,0.417c0.538,1.018,0.965,2.095,1.271,3.201 c0.147,0.532-0.166,1.083-0.698,1.229C38.638,15.988,38.548,16,38.46,16z"/><path fill="#8d6c9f" d="M24,35c-8.822,0-16-7.178-16-16S15.178,3,24,3c4.545,0,8.892,1.943,11.926,5.333 c0.368,0.411,0.333,1.044-0.078,1.412c-0.413,0.368-1.044,0.332-1.412-0.078C31.781,6.701,27.977,5,24,5c-7.72,0-14,6.28-14,14 s6.28,14,14,14c7.351,0,13.487-5.739,13.969-13.065c0.037-0.551,0.516-0.946,1.064-0.933c0.551,0.036,0.968,0.513,0.932,1.063 C39.414,28.44,32.401,35,24,35z"/><path fill="#8d6c9f" d="M40,35c-8.822,0-16-7.178-16-16S31.178,3,40,3s16,7.178,16,16S48.822,35,40,35z M40,5 c-7.72,0-14,6.28-14,14s6.28,14,14,14s14-6.28,14-14S47.72,5,40,5z"/><path fill="#8d6c9f" d="M39.511,46c-0.169,0-0.341-0.043-0.499-0.134C34.07,43.014,31,37.7,31,32c0-8.822,7.178-16,16-16 s16,7.178,16,16c0,5.522-2.791,10.583-7.466,13.536c-0.468,0.293-1.085,0.154-1.379-0.312c-0.295-0.467-0.156-1.085,0.311-1.38 C58.557,41.261,61,36.832,61,32c0-7.72-6.28-14-14-14s-14,6.28-14,14c0,4.988,2.687,9.638,7.012,12.134 c0.478,0.276,0.642,0.888,0.366,1.366C40.192,45.82,39.856,46,39.511,46z"/><path fill="#8d6c9f" d="M49.549,48.797c-0.006,0.001-0.011,0.002-0.016,0.003c-0.546,0.083-1.056-0.293-1.138-0.84 l-0.298-1.978c-0.082-0.546,0.336-1.057,0.84-1.138c0.546-0.083,1.055,0.293,1.138,0.84l0.298,1.978 C50.453,48.202,50.086,48.707,49.549,48.797z"/><path fill="#8d6c9f" d="M44.286,48.711c-0.111,0.019-0.228,0.019-0.345-0.002c-0.543-0.1-0.903-0.621-0.804-1.163 l0.36-1.968c0.099-0.543,0.619-0.906,1.164-0.804c0.543,0.1,0.903,0.621,0.804,1.163l-0.36,1.968 C45.026,48.33,44.69,48.643,44.286,48.711z"/><path fill="#8d6c9f" d="M17,48C8.178,48,1,40.822,1,32s7.178-16,16-16s16,7.178,16,16S25.822,48,17,48z M17,18 C9.28,18,3,24.28,3,32s6.28,14,14,14s14-6.28,14-14S24.72,18,17,18z"/><path fill="#8d6c9f" d="M24.373,61C15.41,61,8.119,53.822,8.119,45s7.292-16,16.254-16c8.962,0,16.254,7.178,16.254,16 c0,0.553-0.448,1-1,1s-1-0.447-1-1c0-7.72-6.394-14-14.254-14s-14.254,6.28-14.254,14s6.395,14,14.254,14 c2.505,0,4.967-0.646,7.121-1.869c0.48-0.272,1.091-0.105,1.363,0.375c0.272,0.48,0.104,1.091-0.376,1.363 C30.027,60.264,27.224,61,24.373,61z"/><path fill="#8d6c9f" d="M39.37,52.178c-0.123,0-0.248-0.022-0.37-0.071l-1.858-0.74 c-0.513-0.204-0.763-0.786-0.559-1.299s0.786-0.765,1.299-0.559l1.858,0.74c0.513,0.204,0.763,0.786,0.559,1.299 C40.143,51.939,39.767,52.178,39.37,52.178z"/><path fill="#8d6c9f" d="M36.582,56.702c-0.233,0-0.468-0.081-0.658-0.247l-1.505-1.316 c-0.416-0.363-0.458-0.995-0.095-1.411c0.364-0.415,0.997-0.458,1.411-0.095l1.505,1.316c0.416,0.363,0.458,0.995,0.095,1.411 C37.137,56.587,36.86,56.702,36.582,56.702z"/><g><path fill="#8d6c9f" d="M39.627,61c-8.962,0-16.254-7.178-16.254-16s7.292-16,16.254-16c8.963,0,16.254,7.178,16.254,16 S48.59,61,39.627,61z M39.627,31c-7.86,0-14.254,6.28-14.254,14s6.394,14,14.254,14s14.254-6.28,14.254-14S47.487,31,39.627,31z"/></g></svg>