<svg xmlns="http://www.w3.org/2000/svg"  viewBox="0 0 64 64" width="64px" height="64px"><path fill="#72caaf" d="M18,53.999L8,48c-2.491-2.135-3.101-6.479-1-9l7-11c2.66-3.192,6.402-5.001,10.557-5.001H32h7.443 c4.155,0,8.095,1.846,10.755,5.037l6.883,11.26c2.151,2.582,1.763,6.427-0.861,8.526L45,53.999H18z"/><path fill="#8d6c9f" d="M17.999,55c-0.175,0-0.353-0.046-0.514-0.143l-10-6c-0.048-0.029-0.094-0.062-0.136-0.099 c-2.967-2.544-3.513-7.452-1.164-10.343l6.767-10.906c0.024-0.039,0.052-0.077,0.082-0.112c2.774-3.33,7.359-5.398,11.966-5.398h14 c4.572,0,8.971,2.004,11.768,5.36c0.027,0.033,0.053,0.067,0.076,0.104l6.967,10.948c1.142,1.401,1.683,3.319,1.485,5.275 c-0.207,2.045-1.18,3.901-2.671,5.095c-0.055,0.044-0.115,0.082-0.178,0.113l-10,4.999c-0.495,0.245-1.095,0.046-1.342-0.447 c-0.247-0.494-0.046-1.095,0.447-1.342l9.901-4.949c1.03-0.862,1.704-2.193,1.853-3.669c0.146-1.449-0.245-2.852-1.074-3.847 c-0.027-0.032-0.053-0.066-0.076-0.103l-6.965-10.945c-2.424-2.877-6.229-4.593-10.191-4.593H25c-4.005,0-7.978,1.771-10.386,4.626 L7.85,39.527c-0.024,0.039-0.052,0.077-0.082,0.113c-1.694,2.032-1.289,5.676,0.822,7.547l9.924,5.955 c0.474,0.284,0.627,0.898,0.343,1.372C18.669,54.827,18.338,55,17.999,55z"/><path fill="#faefde" d="M40,13c0-4.462-3.538-8.001-8-8.001S24,8.538,24,13c0,5.593,3.538,12,8,12S40,18.593,40,13z"/><path fill="#8d6c9f" d="M32,26c-5.151,0-9-6.863-9-13c0-5.047,3.953-9.001,9-9.001c5.047,0,9,3.954,9,9.001 C41,19.137,37.151,26,32,26z M32,5.999c-3.925,0-7,3.075-7,7.001c0,4.982,3.122,11,7,11c3.878,0,7-6.018,7-11 C39,9.074,35.925,5.999,32,5.999z"/><path fill="#b5c4e0" d="M46.237,37H17.762c-1.483,0-2.646,1.274-2.512,2.751l1.541,16.954 c0.118,1.299,1.207,2.294,2.512,2.294h25.392c1.305,0,2.394-0.995,2.512-2.294l1.541-16.954C48.883,38.274,47.72,37,46.237,37z"/><path fill="#acb7d0" d="M48 54L15.999 54 16.999 58.999 46 58.999z"/><path fill="#8d6c9f" d="M44.855,59.999H19.144c-1.743,0-3.176-1.309-3.333-3.044L14.237,39.65 c-0.085-0.935,0.229-1.867,0.862-2.561C15.731,36.397,16.632,36,17.57,36h28.858c0.938,0,1.839,0.397,2.472,1.091 c0.632,0.692,0.947,1.625,0.862,2.56l-1.573,17.305C48.032,58.69,46.598,59.999,44.855,59.999z M17.57,38 c-0.383,0-0.736,0.156-0.995,0.438c-0.258,0.283-0.381,0.649-0.347,1.03l1.573,17.305c0.063,0.699,0.64,1.226,1.341,1.226h25.712 c0.702,0,1.278-0.526,1.342-1.226l1.573-17.305c0.035-0.381-0.088-0.747-0.347-1.029C47.166,38.156,46.812,38,46.429,38H17.57z"/><path fill="#faefde" d="M19,42.999h-3.785c-1.223,0-2.215,0.992-2.215,2.215v3.57c0,1.223,0.992,2.215,2.215,2.215H19 c2.209,0,4-1.791,4-4v0C23,44.79,21.209,42.999,19,42.999z"/><path fill="#8d6c9f" d="M19,51.999h-4.001c-1.653,0-2.999-1.345-2.999-2.998v-4.003c0-1.653,1.345-2.999,2.999-2.999H19 c2.757,0,5,2.243,5,5S21.756,51.999,19,51.999z M14.998,43.999c-0.551,0-0.999,0.448-0.999,0.999v4.003 c0,0.551,0.448,0.998,0.999,0.998H19c1.654,0,3-1.346,3-3s-1.346-3-3-3H14.998z"/><path fill="#faefde" d="M45,42.999h4c1.105,0,2,0.895,2,2v4c0,1.105-0.895,2-2,2h-4c-2.209,0-4-1.791-4-4v0 C41,44.79,42.79,42.999,45,42.999z"/><path fill="#8d6c9f" d="M49 51.999h-4c-2.757 0-5-2.243-5-5s2.243-5 5-5h4c1.654 0 3 1.346 3 3v4C52 50.653 50.654 51.999 49 51.999zM45 43.999c-1.654 0-3 1.346-3 3s1.346 3 3 3h4c.551 0 1-.448 1-1v-4c0-.552-.449-1-1-1H45zM22 55.999c-.552 0-1-.447-1-1v-2c0-.553.448-1 1-1s1 .447 1 1v2C23 55.552 22.552 55.999 22 55.999zM27 55.999c-.552 0-1-.447-1-1v-2c0-.553.448-1 1-1s1 .447 1 1v2C28 55.552 27.552 55.999 27 55.999zM32 55.999c-.552 0-1-.447-1-1v-2c0-.553.448-1 1-1s1 .447 1 1v2C33 55.552 32.552 55.999 32 55.999zM37 56L37 56c-.553 0-1-.448-1-1l0-2.001c0-.553.448-1 1-1l0 0c.553 0 1 .448 1 1L38 55C38 55.553 37.552 56 37 56zM42 55.999c-.552 0-1-.447-1-1V53c0-.553.448-1 1-1s1 .447 1 1v1.999C43 55.552 42.552 55.999 42 55.999z"/></svg>