<svg xmlns="http://www.w3.org/2000/svg"  viewBox="0 0 64 64" width="64px" height="64px"><path fill="#bbdef9" d="M23.39,4.94H52.15a3,3,0,0,1,3,3v48a3,3,0,0,1-3,3h-38a3,3,0,0,1-3-3V17.18A3,3,0,0,1,12,15.06l9.24-9.24A3,3,0,0,1,23.39,4.94Z"/><path fill="#cce7fc" d="M11.15 59L11 49.54 54.48 6.06 55.15 29 25.15 59 11.15 59zM11 39.15L45.21 4.94 50.96 5.19 11.15 45 11 39.15zM11 33.15L39.15 5 42.15 5 11 36.15 11 33.15z"/><path fill="#fff" d="M47.65 17L48.89 19.26 51.15 20.5 48.89 21.74 47.65 24 46.41 21.74 44.15 20.5 46.41 19.26 47.65 17zM30.57 10L31.42 11.56 32.98 12.42 31.42 13.27 30.57 14.84 29.71 13.27 28.15 12.42 29.71 11.56 30.57 10zM23.8 44L24.38 45.06 25.44 45.65 24.38 46.23 23.8 47.3 23.21 46.23 22.15 45.65 23.21 45.06 23.8 44z"/><path fill="#ffefb8" d="M23.15 5L23.15 17 11.15 17 23.15 5z"/><path fill="#8d6c9f" d="M53,4H23.66a5,5,0,0,0-3.54,1.46l-8.66,8.66A5,5,0,0,0,10,17.66V57a3,3,0,0,0,3,3H53a3,3,0,0,0,3-3V7A3,3,0,0,0,53,4ZM21.54,6.88A3,3,0,0,1,22,6.5V15a1,1,0,0,1-1,1H12.5a3,3,0,0,1,.38-.46ZM54,57a1,1,0,0,1-1,1H13a1,1,0,0,1-1-1V18h9a3,3,0,0,0,3-3V6H53a1,1,0,0,1,1,1Z"/><path fill="#8d6c9f" d="M15 50a1 1 0 0 0-1 1v2a1 1 0 0 0 2 0V51A1 1 0 0 0 15 50zM20 50a1 1 0 0 0-1 1v2a1 1 0 0 0 2 0V51A1 1 0 0 0 20 50zM25 50a1 1 0 0 0-1 1v2a1 1 0 0 0 2 0V51A1 1 0 0 0 25 50zM30 50a1 1 0 0 0-1 1v2a1 1 0 0 0 2 0V51A1 1 0 0 0 30 50zM35 50a1 1 0 0 0-1 1v2a1 1 0 0 0 2 0V51A1 1 0 0 0 35 50zM40 50a1 1 0 0 0-1 1v2a1 1 0 0 0 2 0V51A1 1 0 0 0 40 50zM45 50a1 1 0 0 0-1 1v2a1 1 0 0 0 2 0V51A1 1 0 0 0 45 50zM50 50a1 1 0 0 0-1 1v2a1 1 0 0 0 2 0V51A1 1 0 0 0 50 50zM48.71 32.29l-6-6a1 1 0 0 0-1.41 1.41L46.59 33l-5.29 5.29a1 1 0 1 0 1.41 1.41l6-6A1 1 0 0 0 48.71 32.29zM24.71 39.71a1 1 0 0 0 0-1.41L19.41 33l5.29-5.29a1 1 0 0 0-1.41-1.41l-6 6a1 1 0 0 0 0 1.41l6 6a1 1 0 0 0 1.41 0zM36.24 20a1 1 0 0 0-1.21.73l-6 24a1 1 0 1 0 1.94.49l6-24A1 1 0 0 0 36.24 20z"/></svg>