<svg xmlns="http://www.w3.org/2000/svg"  viewBox="0 0 64 64" width="64px" height="64px"><path fill="#72caaf" d="M54,51H4c-1.1,0-2-0.9-2-2V21.1c0-1.1,0.9-2,2-2h50c1.1,0,2,0.9,2,2V49C56,50.1,55.1,51,54,51z"/><path fill="#72caaf" d="M60,45H10c-1.1,0-2-0.9-2-2V15.1c0-1.1,0.9-2,2-2h50c1.1,0,2,0.9,2,2V43C62,44.1,61.1,45,60,45z"/><path fill="#f9dd8f" d="M17 27A3 3 0 1 0 17 33 3 3 0 1 0 17 27zM53 27A3 3 0 1 0 53 33 3 3 0 1 0 53 27z"/><path fill="#ace3ff" d="M35 19A8 10 0 1 0 35 39A8 10 0 1 0 35 19Z"/><path fill="#e3f2ff" d="M35 39c4.4 0 8-4.5 8-10 0-2-.5-3.8-1.3-5.4l-11 13.8C32 38.4 33.4 39 35 39zM29.1 35.8l11.2-14.2c-.5-.6-1.1-1.1-1.8-1.5L27.9 33.6C28.2 34.4 28.6 35.1 29.1 35.8zM27.3 31.8l9.8-12.4c-.3-.1-.5-.2-.8-.2l-9.2 11.6C27.2 31.1 27.2 31.4 27.3 31.8z"/><path fill="#97e0bb" d="M59,18H10c-1.7,0-3-1.3-3-3l0,0c0-1.1,0.9-2,2-2h51c1.1,0,2,0.9,2,2l0,0C62,16.7,60.7,18,59,18z"/><path fill="#8d6c9f" d="M22 16c-.6 0-1 .4-1 1v2c0 .6.4 1 1 1s1-.4 1-1v-2C23 16.4 22.6 16 22 16zM27 20c.6 0 1-.4 1-1v-2c0-.6-.4-1-1-1s-1 .4-1 1v2C26 19.6 26.4 20 27 20zM43 16c-.6 0-1 .4-1 1v2c0 .6.4 1 1 1s1-.4 1-1v-2C44 16.4 43.6 16 43 16zM48 20c.6 0 1-.4 1-1v-2c0-.6-.4-1-1-1s-1 .4-1 1v2C47 19.6 47.4 20 48 20zM22 38c-.6 0-1 .4-1 1v2c0 .6.4 1 1 1s1-.4 1-1v-2C23 38.4 22.6 38 22 38zM27 38c-.6 0-1 .4-1 1v2c0 .6.4 1 1 1s1-.4 1-1v-2C28 38.4 27.6 38 27 38zM43 38c-.6 0-1 .4-1 1v2c0 .6.4 1 1 1s1-.4 1-1v-2C44 38.4 43.6 38 43 38zM48 38c-.6 0-1 .4-1 1v2c0 .6.4 1 1 1s1-.4 1-1v-2C49 38.4 48.6 38 48 38zM12 19h5c.6 0 1-.4 1-1s-.4-1-1-1h-5c-.6 0-1 .4-1 1S11.4 19 12 19zM17 39h-5c-.6 0-1 .4-1 1s.4 1 1 1h5c.6 0 1-.4 1-1S17.6 39 17 39zM58 39h-5c-.6 0-1 .4-1 1s.4 1 1 1h5c.6 0 1-.4 1-1S58.6 39 58 39zM58 17h-5c-.6 0-1 .4-1 1s.4 1 1 1h5c.6 0 1-.4 1-1S58.6 17 58 17zM39 19.1V17c0-.6-.4-1-1-1s-1 .4-1 1v1.3c-.6-.2-1.3-.3-2-.3s-1.4.1-2 .3V17c0-.6-.4-1-1-1-.6 0-1 .4-1 1v2c0 .1 0 .1 0 .1-3 1.8-5 5.5-5 9.9s2.1 8.1 5 9.9V41c0 .6.4 1 1 1 .6 0 1-.4 1-1v-1.3c.6.2 1.3.3 2 .3s1.4-.1 2-.3V41c0 .6.4 1 1 1s1-.4 1-1v-2c0-.1 0-.1 0-.1 3-1.8 5-5.5 5-9.9S41.9 20.9 39 19.1zM35 38.2c-1.4 0-2.7-.52-3.8-1.43-.57-.47-1.09-1.04-1.52-1.7-.47-.68-.86-1.44-1.14-2.28-.22-.61-.39-1.26-.49-1.93-.01 0 0-.01 0-.01-.06-.36-.1-.73-.12-1.1-.02-.25-.03-.5-.03-.75 0-5.1 3.2-9.2 7.1-9.2.26 0 .52.02.78.06.28.03.55.09.81.18.51.14.99.36 1.45.64.64.4 1.24.93 1.76 1.55.52.61.96 1.32 1.31 2.11C41.74 25.7 42.1 27.3 42.1 29 42.1 34.1 38.9 38.2 35 38.2zM53 26c-2.2 0-4 1.8-4 4s1.8 4 4 4 4-1.8 4-4S55.2 26 53 26zM53 32.2c-1.2 0-2.2-1-2.2-2.2s1-2.2 2.2-2.2 2.2 1 2.2 2.2S54.2 32.2 53 32.2zM17 26c-2.2 0-4 1.8-4 4s1.8 4 4 4 4-1.8 4-4S19.2 26 17 26zM17 32.2c-1.2 0-2.2-1-2.2-2.2s1-2.2 2.2-2.2 2.2 1 2.2 2.2S18.2 32.2 17 32.2z"/><path fill="#8d6c9f" d="M60,12H10c-1.63,0-2.89,1.2-2.99,2.8C7,14.86,7,14.93,7,15v27v1c0,1.7,1.3,3,3,3h50 c1.7,0,3-1.3,3-3v-1V15C63,13.3,61.7,12,60,12z M61,43c0,0.6-0.4,1-1,1H10c-0.6,0-1-0.4-1-1v-1V15c0-0.6,0.4-1,1-1h50 c0.6,0,1,0.4,1,1v27V43z"/><path fill="#8d6c9f" d="M55,44.905V49c0,0.6-0.4,1-1,1H4c-0.6,0-1-0.4-1-1V21c0-0.6,0.4-1,1-1h4.261 c-0.063-0.669-0.134-1.336-0.239-2H4c-1.63,0-2.89,1.2-2.99,2.8C1,20.86,1,20.93,1,21v28c0,1.7,1.3,3,3,3h50c1.7,0,3-1.3,3-3 v-3.999C56.333,44.989,55.666,44.949,55,44.905z"/></svg>