<svg xmlns="http://www.w3.org/2000/svg"  viewBox="0 0 64 64" width="64px" height="64px"><path fill="#72caaf" d="M54.84 7L16.66 7 16.66 13 44.77 13 9.14 48.63 13.38 52.88 49.01 17.24 49.01 45.35 55.01 45.35 55.01 7.17 54.84 7.17 54.84 7z"/><path fill="#97e0bb" d="M18,7H54a0,0,0,0,1,0,0V8a2,2,0,0,1-2,2H20a2,2,0,0,1-2-2V7A0,0,0,0,1,18,7Z"/><path fill="#5dbc9d" d="M49.8,16.45,13.95,52.3h0a3,3,0,0,1,0-4.24l31.7-31.7a2.88,2.88,0,0,1,4.15.09Z"/><path fill="#8d6c9f" d="M55,6.05H17a1,1,0,0,0-1,1v6A.92.92,0,0,0,17,14H42.57L8.33,48.06a1,1,0,0,0,0,1.42l4.24,4.24a1,1,0,0,0,.71.29h0a1,1,0,0,0,.71-.29L48,19.48V45.05A.92.92,0,0,0,49,46h6a.92.92,0,0,0,1-.95v-38A1,1,0,0,0,55,6.05Zm-1,38H50v-27a1,1,0,0,0-1.71-.71l-35,35.25-2.82-2.82,35.25-35a1,1,0,0,0-.7-1.71H18V8H54Z"/><path fill="#8d6c9f" d="M41.56 30.39a1 1 0 0 0-1.41 1.41l1.41 1.41A1 1 0 1 0 43 31.8zM45.1 26.85a1 1 0 0 0-1.41 1.41l1.41 1.41a1 1 0 0 0 1.41-1.41zM38 33.92a1 1 0 0 0-1.41 1.41L38 36.75a1 1 0 0 0 1.41-1.41zM34.49 37.46a1 1 0 0 0-1.41 1.41l1.41 1.41a1 1 0 0 0 1.41-1.41zM31 41a1 1 0 0 0-1.41 1.41L31 43.82a1 1 0 0 0 1.41-1.41zM27.42 44.53A1 1 0 0 0 26 45.95l1.41 1.41a1 1 0 0 0 1.41-1.41zM23.89 48.07a1 1 0 0 0-1.42 1.41l1.41 1.42a1 1 0 0 0 1.42-1.41zM20.35 51.6A1 1 0 0 0 18.94 53l1.41 1.41A1 1 0 0 0 21.77 53zM16.82 55.14a1 1 0 0 0-1.41 1.41L16.82 58a1 1 0 0 0 1.41-1.41z"/></svg>