<svg xmlns="http://www.w3.org/2000/svg"  viewBox="0 0 64 64" width="64px" height="64px"><path fill="#c2cde7" d="M29.28,58.44a3.92,3.92,0,0,1,5.43,0A9,9,0,0,0,49.48,55h0a4.49,4.49,0,0,0,4.16-6.21,7,7,0,0,0,4.48-10.16,7,7,0,0,0-2.56-12.45A5.49,5.49,0,0,0,51.5,17h-.11A5.49,5.49,0,0,0,44,9.62,5.9,5.9,0,0,0,43.64,7,6,6,0,0,0,34,4.56a2.94,2.94,0,0,1-3.93,0A6,6,0,0,0,20.36,7,5.9,5.9,0,0,0,20,9.62,5.49,5.49,0,0,0,12.61,17H12.5a5.49,5.49,0,0,0-4.08,9.18A7,7,0,0,0,5.86,38.64a7,7,0,0,0,4.48,10.16A4.49,4.49,0,0,0,14.5,55h0a9,9,0,0,0,14.76,3.45Z"/><path fill="#b5c4e0" d="M61,33a7,7,0,0,0-5.42-6.82A5.49,5.49,0,0,0,51.5,17h-.11A5.49,5.49,0,0,0,44,9.62,5.9,5.9,0,0,0,43.64,7,6,6,0,0,0,34,4.56a2.92,2.92,0,0,1-2,.75v52a3.88,3.88,0,0,1,2.72,1.1A9,9,0,0,0,49.48,55h0a4.49,4.49,0,0,0,4.16-6.21,7,7,0,0,0,4.48-10.16A7,7,0,0,0,61,33Z"/><path fill="#8d6c9f" d="M33 13H31a1 1 0 0 0 0 2h2a1 1 0 0 0 0-2zM33 8H31a1 1 0 0 0 0 2h2a1 1 0 0 0 0-2zM33 18H31a1 1 0 0 0 0 2h2a1 1 0 0 0 0-2zM33 23H31a1 1 0 0 0 0 2h2a1 1 0 0 0 0-2zM33 28H31a1 1 0 0 0 0 2h2a1 1 0 0 0 0-2zM33 33H31a1 1 0 0 0 0 2h2a1 1 0 0 0 0-2zM33 38H31a1 1 0 0 0 0 2h2a1 1 0 0 0 0-2zM33 43H31a1 1 0 0 0 0 2h2a1 1 0 0 0 0-2zM33 48H31a1 1 0 0 0 0 2h2a1 1 0 0 0 0-2zM33 53H31a1 1 0 0 0 0 2h2a1 1 0 0 0 0-2zM46.5 23.32a1 1 0 0 0-1 1 4.51 4.51 0 0 1-2.26 3.91 1 1 0 1 0 1 1.73 6.52 6.52 0 0 0 3.27-5.64A1 1 0 0 0 46.5 23.32zM20.08 29.92a1 1 0 0 0 .88-1.8 4.47 4.47 0 0 1-2.53-4 1 1 0 0 0-2 0A6.46 6.46 0 0 0 20.08 29.92zM25.36 16.27a1 1 0 0 0-1.19 1.61 4.5 4.5 0 0 1 .8 6.49 1 1 0 1 0 1.54 1.27 6.5 6.5 0 0 0-1.16-9.37zM24.49 39.92a1 1 0 0 0 .45-1.34A6.51 6.51 0 0 0 18.14 35a1 1 0 0 0 .3 2 4.51 4.51 0 0 1 4.71 2.45 1 1 0 0 0 1.34.45zM46.19 35a6.54 6.54 0 0 0-5.57 1.83 6.47 6.47 0 0 0-1.23 1.71 1 1 0 0 0 1.79.89A4.51 4.51 0 0 1 45.89 37a1 1 0 0 0 .3-2zM38.26 26A1 1 0 0 0 39 24.36a4.5 4.5 0 0 1 1-6.59 1 1 0 0 0-1.12-1.66 6.5 6.5 0 0 0-1.38 9.53A1 1 0 0 0 38.26 26zM25.36 46.27a1 1 0 1 0-1.19 1.61A4.52 4.52 0 0 1 26 51.5a4.45 4.45 0 0 1-.49 2 1 1 0 0 0 1.78.91 6.5 6.5 0 0 0-1.93-8.19zM38.87 46.11a6.5 6.5 0 0 0-2.15 8.35 1 1 0 0 0 1.78-.91 4.44 4.44 0 0 1-.49-2 4.5 4.5 0 0 1 2-3.73 1 1 0 0 0-1.12-1.66z"/><path fill="#8d6c9f" d="M59.89,40.74c0-.18-.06-.36-.1-.54s-.07-.28-.1-.41-.09-.29-.14-.44-.1-.29-.16-.43h0A8,8,0,0,0,62,33a7.94,7.94,0,0,0-3.47-6.58l-.05-.05-.12-.07-.4-.23c-.19-.11-.38-.21-.57-.3l-.21-.11a6.49,6.49,0,0,0-4.38-9.53,6.5,6.5,0,0,0-5-8A6.7,6.7,0,0,0,46.53,8h-.09a6.49,6.49,0,0,0-.83.06l-.22,0L45,8.19a7,7,0,0,0-.37-1.56A7,7,0,0,0,33.29,3.82a1.94,1.94,0,0,1-2.59,0A7,7,0,0,0,19,8.19,6.44,6.44,0,0,0,17.55,8h-.09a6.64,6.64,0,0,0-1.27.12,6.5,6.5,0,0,0-5,8,6.49,6.49,0,0,0-4.38,9.53,7.9,7.9,0,0,0-.92.48l-.2.12a8,8,0,0,0-.78.56l-.3.28-.27.25,0,0A8,8,0,0,0,2,33a8,8,0,0,0,2.62,5.91v0c0,.08-.06.17-.09.25s-.16.46-.22.69c0,.06,0,.11-.06.17s0,0,0,.06A7.94,7.94,0,0,0,9.1,49.45v0A5.48,5.48,0,0,0,13.83,56,10,10,0,0,0,30,59.16a2.91,2.91,0,0,1,4,0A10,10,0,0,0,50.17,56a5.49,5.49,0,0,0,4.73-6.49v0a7.93,7.93,0,0,0,5-8.37C59.93,41,59.91,40.86,59.89,40.74Zm-5.74,6.84A5.5,5.5,0,0,0,49.8,45a6.29,6.29,0,0,0-.56-4.57,1,1,0,1,0-1.76.94,4.5,4.5,0,0,1-2.91,6.49,1,1,0,0,0,.23,2,1,1,0,0,0,.24,0,6.45,6.45,0,0,0,3.88-2.75,3.34,3.34,0,0,1,3.82,2.11,3.54,3.54,0,0,1,.19.64A3.49,3.49,0,0,1,49.54,54a1,1,0,0,0-1,.67,8,8,0,0,1-13.12,3.06,4.92,4.92,0,0,0-6.83,0,8,8,0,0,1-13.12-3.06,1,1,0,0,0-1-.67,3.49,3.49,0,0,1-3.2-4.83h0a3.34,3.34,0,0,1,3.82-2.1A6.46,6.46,0,0,0,19,49.82a1,1,0,0,0,.47-1.94,4.5,4.5,0,0,1-3-6.37,1,1,0,0,0-1.79-.89A6.28,6.28,0,0,0,14.2,45a5.5,5.5,0,0,0-4.35,2.56,6,6,0,0,1-3.43-7.79c0-.11.1-.22.16-.34A6,6,0,0,1,7.81,37.7a1,1,0,1,0-1.4-1.43,8,8,0,0,0-.75.85,6,6,0,0,1,.21-8.47l.21-.19a5.94,5.94,0,0,1,.65-.5l.09-.06a6,6,0,0,1,1.82-.75h0a6,6,0,0,1,3.13.11,1,1,0,0,0,.59-1.91,7.79,7.79,0,0,0-3.53-.27A4.47,4.47,0,0,1,12.47,18h.11a1,1,0,0,0,.92-1.46,4.49,4.49,0,0,1,3.09-6.46,4.6,4.6,0,0,1,1.53,0h.07a4.45,4.45,0,0,1,.61.14l.19.07a4.56,4.56,0,0,1,2.43,2,1,1,0,0,0,1.73-1A6.49,6.49,0,0,0,21,9a4.87,4.87,0,0,1,.3-1.73,5,5,0,0,1,8.06-2,4,4,0,0,0,5.28,0,5,5,0,0,1,8.06,2A4.87,4.87,0,0,1,43,9a6.49,6.49,0,0,0-2.34,2.63,1,1,0,0,0,1.8.88,4.53,4.53,0,0,1,2.65-2.3l0,0a4.57,4.57,0,0,1,2.26-.12,4.49,4.49,0,0,1,3.09,6.46,1,1,0,0,0,.08,1,1.08,1.08,0,0,0,.91.46,4.47,4.47,0,0,1,3.64,7.1,8,8,0,0,0-4,.42,1,1,0,0,0,.71,1.87,6,6,0,0,1,4.36.05l.24.1a6,6,0,0,1,.61.32l.21.12a6,6,0,0,1,1,9.14,8,8,0,0,0-2.09-1.91,1,1,0,1,0-1.06,1.7,6,6,0,0,1,2.08,2.18v0A6,6,0,0,1,58,41.25,6.1,6.1,0,0,1,58,42,6,6,0,0,1,54.15,47.58Z"/></svg>