<svg xmlns="http://www.w3.org/2000/svg"  viewBox="0 0 64 64" width="64px" height="64px"><path fill="#efd8be" d="M61,57H13.527C11.027,57,9,54.973,9,52.473V17h52V57z"/><path fill="#faefde" d="M57,15v36c0,1.1-0.9,2-2,2H10.2C6.22,53,3,49.78,3,45.8V13h52C56.1,13,57,13.9,57,15z"/><path fill="#efd8be" d="M15,53H9.491C5.906,53,3,50.094,3,46.509V37h12V53z"/><path fill="#fff7f0" d="M15,45l-3-4c-1.193-1.235-4.765-1.193-6,0l-3,4V8c0-3.314,2.686-6,6-6h0c3.314,0,6,2.686,6,6V45z"/><path fill="#fff7f0" d="M57 15v9.06l-28 28H15l-.15-9.46L44.46 13H55C56.1 13 57 13.9 57 15zM40.06 13L15 38.06l-2.94.26c-1.24.11-1.94-1.38-1.06-2.26L34.06 13H40.06zM31.06 13L10.98 33.09 10.98 30.09 28.06 13z"/><path fill="#8d6c9f" d="M59,16h-1v-1c0-1.654-1.346-3-3-3H16V8c0-3.859-3.14-7-7-7S2,4.141,2,8v1v1v36v1 c0,3.392,2.426,6.227,5.634,6.864C8.756,56.354,11.235,58,14,58h45c1.654,0,3-1.346,3-3V19C62,17.346,60.654,16,59,16z M4,10V9V8 c0-2.757,2.243-5,5-5s5,2.243,5,5v33.111C12.728,39.81,10.958,39,9,39s-3.728,0.81-5,2.111V10z M4,47v-1c0-2.757,2.243-5,5-5 s5,2.243,5,5v1c0,0.553,0.448,1,1,1s1-0.447,1-1V14h39c0.551,0,1,0.448,1,1v36c0,0.552-0.449,1-1,1H9C6.243,52,4,49.757,4,47z M60,55c0,0.552-0.449,1-1,1H14c-1.599,0-3.069-0.766-3.997-2H55c1.654,0,3-1.346,3-3V18h1c0.551,0,1,0.448,1,1V55z"/><path fill="#8d6c9f" d="M51 24h2c.552 0 1-.447 1-1s-.448-1-1-1h-2c-.552 0-1 .447-1 1S50.448 24 51 24zM51 29h2c.552 0 1-.447 1-1s-.448-1-1-1h-2c-.552 0-1 .447-1 1S50.448 29 51 29zM51 19h2c.552 0 1-.447 1-1s-.448-1-1-1h-2c-.552 0-1 .447-1 1S50.448 19 51 19zM51 34h2c.552 0 1-.447 1-1s-.448-1-1-1h-2c-.552 0-1 .447-1 1S50.448 34 51 34zM51 39h2c.552 0 1-.447 1-1s-.448-1-1-1h-2c-.552 0-1 .447-1 1S50.448 39 51 39zM51 49h2c.552 0 1-.447 1-1s-.448-1-1-1h-2c-.552 0-1 .447-1 1S50.448 49 51 49zM51 44h2c.552 0 1-.447 1-1s-.448-1-1-1h-2c-.552 0-1 .447-1 1S50.448 44 51 44z"/><path fill="#91c172" d="M21,38c0.256,0,0.512-0.098,0.707-0.293L28,31.414l3.293,3.293c0.391,0.391,1.023,0.391,1.414,0 L42,25.414V29c0,0.553,0.448,1,1,1s1-0.447,1-1v-6c0-0.013-0.007-0.024-0.007-0.037c-0.004-0.117-0.022-0.234-0.069-0.346 c0-0.001-0.001-0.002-0.002-0.003c-0.004-0.009-0.011-0.016-0.015-0.025c-0.045-0.1-0.106-0.187-0.178-0.265 c-0.024-0.026-0.05-0.046-0.076-0.069c-0.064-0.056-0.133-0.102-0.208-0.14c-0.032-0.016-0.061-0.032-0.095-0.045 C43.239,22.029,43.123,22,43,22h-6c-0.552,0-1,0.447-1,1s0.448,1,1,1h3.586L32,32.586l-3.293-3.293 c-0.391-0.391-1.023-0.391-1.414,0l-7,7c-0.391,0.391-0.391,1.023,0,1.414C20.488,37.902,20.744,38,21,38z"/><path fill="#8d6c9f" d="M19,42h26c0.552,0,1-0.447,1-1s-0.448-1-1-1H19c-0.552,0-1,0.447-1,1S18.448,42,19,42z"/><g><path fill="#fff" d="M23.502 18.996L24.74 21.26 27.004 22.498 24.74 23.736 23.502 26 22.264 23.736 20 22.498 22.264 21.26zM45.581 34L46.436 35.564 48 36.419 46.436 37.274 45.581 38.838 44.726 37.274 43.162 36.419 44.726 35.564zM30.648 46L31.231 47.065 32.296 47.648 31.231 48.231 30.648 49.296 30.065 48.231 29 47.648 30.065 47.065z"/></g></svg>