<svg xmlns="http://www.w3.org/2000/svg"  viewBox="0 0 64 64" width="64px" height="64px"><path fill="#85cbf8" d="M30.578,60.135c-0.823,0-1.548-0.465-1.891-1.213L11.955,22.398 c-0.089-0.195-0.236-0.294-0.437-0.294c-0.021,0-0.518,0.006-0.518,0.502V58c0,0.552-0.448,1-1,1H6c-0.552,0-1-0.448-1-1V7 c0-0.552,0.448-1,1-1h7.788c0.391,0,0.746,0.228,0.909,0.583l17.809,38.872L50,7.016V7c0-0.552,0.447-1,1-1h8c0.553,0,1,0.448,1,1 v51c0,0.552-0.447,1-1,1h-8c-0.553,0-1-0.448-1-1V22.706c0-0.497-0.497-0.502-0.519-0.502c-0.2,0-0.348,0.099-0.437,0.294 L32.47,58.917C32.128,59.668,31.403,60.135,30.578,60.135z"/><path fill="#9fddff" d="M49.833 21.671v36.075c2.903-.023 5.25-2.379 5.25-5.287v-25.5C55.083 24.05 52.736 21.694 49.833 21.671zM11.456 21.195l17.231 37.93c2.635-1.219 3.8-4.334 2.6-6.983L18.421 23.845C17.22 21.196 14.11 20.018 11.456 21.195z"/><path fill="#8d6c9f" d="M55 17c-.553 0-1-.448-1-1v-4c0-.552.447-1 1-1s1 .448 1 1v4C56 16.552 55.553 17 55 17zM55 29c-.553 0-1-.448-1-1v-8c0-.552.447-1 1-1s1 .448 1 1v8C56 28.552 55.553 29 55 29z"/><path fill="#8d6c9f" d="M59,7v51h-8V22.706c0-0.947-0.757-1.502-1.518-1.502c-0.535,0-1.072,0.275-1.347,0.881L31.56,58.503 c-0.192,0.421-0.587,0.632-0.982,0.632c-0.394,0-0.789-0.21-0.981-0.63L12.864,21.982c-0.277-0.604-0.812-0.877-1.346-0.877 c-0.761,0-1.518,0.556-1.518,1.502V58H6V7h4h3.788L31.69,46.075c0.16,0.349,0.488,0.524,0.816,0.524 c0.329,0,0.658-0.175,0.817-0.526L51,7.233V7H59 M59,5h-8c-1.027,0-1.873,0.774-1.987,1.771l-16.51,36.277L15.606,6.167 C15.281,5.456,14.57,5,13.788,5H10H6C4.895,5,4,5.895,4,7v51c0,1.105,0.895,2,2,2h4c1.105,0,2-0.895,2-2V24.898l15.778,34.44 c0.508,1.108,1.58,1.797,2.799,1.797c1.222,0,2.296-0.691,2.803-1.804L49,25.012V58c0,1.105,0.895,2,2,2h8c1.105,0,2-0.895,2-2V7 C61,5.895,60.105,5,59,5L59,5z"/><path fill="#8d6c9f" d="M20.136 12.069c.232.501.826.72 1.327.489l1.816-.838c.501-.232.72-.826.489-1.327s-.826-.72-1.327-.489l-1.816.838C20.123 10.973 19.905 11.567 20.136 12.069zM18.04 7.529c.232.501.826.72 1.327.489l1.816-.838c.501-.232.72-.826.489-1.327-.232-.501-.826-.72-1.327-.489l-1.816.838C18.027 6.434 17.808 7.028 18.04 7.529zM22.232 16.608c.232.501.826.72 1.327.489l1.816-.838c.501-.232.72-.826.489-1.327-.232-.501-.826-.72-1.327-.489l-1.816.838C22.22 15.513 22.001 16.107 22.232 16.608zM24.329 21.148c.232.501.826.72 1.327.489l1.816-.838c.501-.232.72-.826.489-1.327-.232-.501-.826-.72-1.327-.489l-1.816.838C24.316 20.052 24.097 20.646 24.329 21.148zM28.521 30.226c.232.501.826.72 1.327.489l1.816-.838c.501-.232.72-.826.489-1.327-.232-.501-.826-.72-1.327-.489l-1.816.838C28.508 29.131 28.29 29.725 28.521 30.226zM26.425 25.687c.232.501.826.72 1.327.489l1.816-.838c.501-.232.72-.826.489-1.327s-.826-.72-1.327-.489l-1.816.838C26.412 24.591 26.193 25.185 26.425 25.687zM30.617 34.766c.232.501.826.72 1.327.489l1.816-.838c.501-.232.72-.826.489-1.327s-.826-.72-1.327-.489l-1.816.838C30.605 33.67 30.386 34.264 30.617 34.766z"/></svg>