<svg xmlns="http://www.w3.org/2000/svg"  viewBox="0 0 64 64" width="64px" height="64px"><path fill="#faefde" d="M10,57h35l12-12V10c0-1.657-1.343-3-3-3H10c-1.657,0-3,1.343-3,3v44C7,55.657,8.343,57,10,57z"/><path fill="#ace3ff" d="M45 57L45 45 57 45z"/><path fill="#8d6c9f" d="M55,6H9C7.343,6,6,7.343,6,9v46c0,1.657,1.343,3,3,3h35.34c1.327,0.002,2.6-0.523,3.54-1.46 l8.66-8.66c0.937-0.94,1.462-2.213,1.46-3.54V9C58,7.343,56.657,6,55,6z M9,56c-0.552,0-1-0.448-1-1V9c0-0.552,0.448-1,1-1h46 c0.552,0,1,0.448,1,1v35h-9c-1.657,0-3,1.343-3,3v9H9z M46.46,55.12c-0.155,0.151-0.326,0.285-0.51,0.4V47c0-0.552,0.448-1,1-1 h8.57c-0.115,0.184-0.249,0.355-0.4,0.51L46.46,55.12z"/><path fill="#8d6c9f" d="M12 10c-.552 0-1 .448-1 1v2c0 .552.448 1 1 1s1-.448 1-1v-2C13 10.448 12.552 10 12 10zM17 14c.552 0 1-.448 1-1v-2c0-.552-.448-1-1-1s-1 .448-1 1v2C16 13.552 16.448 14 17 14zM22 14c.552 0 1-.448 1-1v-2c0-.552-.448-1-1-1s-1 .448-1 1v2C21 13.552 21.448 14 22 14zM27 14c.552 0 1-.448 1-1v-2c0-.552-.448-1-1-1s-1 .448-1 1v2C26 13.552 26.448 14 27 14zM32 14c.552 0 1-.448 1-1v-2c0-.552-.448-1-1-1s-1 .448-1 1v2C31 13.552 31.448 14 32 14zM37 14c.552 0 1-.448 1-1v-2c0-.552-.448-1-1-1s-1 .448-1 1v2C36 13.552 36.448 14 37 14zM42 14c.552 0 1-.448 1-1v-2c0-.552-.448-1-1-1s-1 .448-1 1v2C41 13.552 41.448 14 42 14zM47 14c.552 0 1-.448 1-1v-2c0-.552-.448-1-1-1s-1 .448-1 1v2C46 13.552 46.448 14 47 14zM52 14c.552 0 1-.448 1-1v-2c0-.552-.448-1-1-1s-1 .448-1 1v2C51 13.552 51.448 14 52 14zM42 26c0-.552-.448-1-1-1h-4c-.552 0-1 .448-1 1s.448 1 1 1h4C41.552 27 42 26.552 42 26zM46 38c0-.552-.448-1-1-1h-6c-.552 0-1 .448-1 1s.448 1 1 1h6C45.552 39 46 38.552 46 38zM37 19h14c.552 0 1-.448 1-1s-.448-1-1-1H37c-.552 0-1 .448-1 1S36.448 19 37 19zM37 23h14c.552 0 1-.448 1-1s-.448-1-1-1H37c-.552 0-1 .448-1 1S36.448 23 37 23zM35 37H13c-.552 0-1 .448-1 1s.448 1 1 1h22c.552 0 1-.448 1-1S35.552 37 35 37zM41 41H13c-.552 0-1 .448-1 1s.448 1 1 1h28c.552 0 1-.448 1-1S41.552 41 41 41z"/><path fill="#72caaf" d="M13.26,33.95C14,30,17.29,26,21,26h2c3.71,0,7,4,7.74,8"/><path fill="#fdeedd" d="M22,17L22,17c2.209,0,4,1.791,4,4v2c0,2.209-1.791,4-4,4l0,0c-2.209,0-4-1.791-4-4v-2 C18,18.791,19.791,17,22,17z"/><path fill="#986ca1" d="M26.23,25.69c0.507-0.805,0.775-1.738,0.77-2.69v-2c0-2.761-2.239-5-5-5s-5,2.239-5,5v2 c-0.002,0.953,0.269,1.886,0.78,2.69c-2.884,1.315-4.939,3.961-5.5,7.08c-0.099,0.552,0.268,1.081,0.82,1.18 c0.552,0.099,1.081-0.268,1.18-0.82c0.469-2.764,2.44-5.036,5.11-5.89c1.617,1.005,3.663,1.005,5.28,0 c2.67,0.854,4.641,3.126,5.11,5.89c0.088,0.481,0.511,0.828,1,0.82c0.063,0.01,0.127,0.01,0.19,0c0.54-0.101,0.897-0.619,0.8-1.16 C31.64,32.102,30,27,26.23,25.69z M25,23c0,1.657-1.343,3-3,3s-3-1.343-3-3v-2c0-1.657,1.343-3,3-3s3,1.343,3,3V23z"/></svg>