<svg xmlns="http://www.w3.org/2000/svg"  viewBox="0 0 64 64" width="64px" height="64px"><path fill="#bbdef9" d="M21 27H45V33H21z"/><path fill="#ed7899" d="M41,11h-.46a15,15,0,0,1-6.71-1.58L33,9V5l.83.42A15,15,0,0,0,40.54,7H41Z"/><path fill="#bbdef9" d="M7 29H9a2 2 0 0 1 2 2v2a0 0 0 0 1 0 0H5a0 0 0 0 1 0 0V31A2 2 0 0 1 7 29zM57 29h2a2 2 0 0 1 2 2v2a0 0 0 0 1 0 0H55a0 0 0 0 1 0 0V31A2 2 0 0 1 57 29z"/><path fill="#faefde" d="M5 37H61V61H5z"/><path fill="#cda1a7" d="M5 55H61V61H5z"/><path fill="#bbdef9" d="M27,54.95H39a0,0,0,0,1,0,0v5a1,1,0,0,1-1,1H28a1,1,0,0,1-1-1v-5A0,0,0,0,1,27,54.95Z" transform="rotate(-180 33 57.95)"/><path fill="#efd8be" d="M61,37H5a2,2,0,0,1-2-2H3a2,2,0,0,1,2-2H61a2,2,0,0,1,2,2h0A2,2,0,0,1,61,37Z"/><path fill="#faefde" d="M33,15A12,12,0,0,0,21,27H45A12,12,0,0,0,33,15Z"/><path fill="#8d6c9f" d="M15 42H13a1 1 0 0 0 0 2h2a1 1 0 0 0 0-2zM21 42H19a1 1 0 0 0 0 2h2a1 1 0 0 0 0-2zM31 42H29a1 1 0 0 0 0 2h2a1 1 0 0 0 0-2zM37 42H35a1 1 0 0 0 0 2h2a1 1 0 0 0 0-2zM15 46H13a1 1 0 0 0 0 2h2a1 1 0 0 0 0-2zM21 46H19a1 1 0 0 0 0 2h2a1 1 0 0 0 0-2zM31 46H29a1 1 0 0 0 0 2h2a1 1 0 0 0 0-2zM37 46H35a1 1 0 0 0 0 2h2a1 1 0 0 0 0-2zM31 50H29a1 1 0 0 0 0 2h2a1 1 0 0 0 0-2zM37 50H35a1 1 0 0 0 0 2h2a1 1 0 0 0 0-2zM15 54H13a1 1 0 0 0 0 2h2a1 1 0 0 0 0-2zM15 50H13a1 1 0 0 0 0 2h2a1 1 0 0 0 0-2zM21 54H19a1 1 0 0 0 0 2h2a1 1 0 0 0 0-2zM21 50H19a1 1 0 0 0 0 2h2a1 1 0 0 0 0-2zM47 42H45a1 1 0 0 0 0 2h2a1 1 0 0 0 0-2zM53 42H51a1 1 0 0 0 0 2h2a1 1 0 0 0 0-2zM47 46H45a1 1 0 0 0 0 2h2a1 1 0 0 0 0-2zM53 46H51a1 1 0 0 0 0 2h2a1 1 0 0 0 0-2zM47 54H45a1 1 0 0 0 0 2h2a1 1 0 0 0 0-2zM47 50H45a1 1 0 0 0 0 2h2a1 1 0 0 0 0-2zM53 54H51a1 1 0 0 0 0 2h2a1 1 0 0 0 0-2zM53 50H51a1 1 0 0 0 0 2h2a1 1 0 0 0 0-2z"/><path fill="#8d6c9f" d="M63,60H62V37.82a3,3,0,0,0,0-5.63V31a3,3,0,0,0-3-3H57a3,3,0,0,0-3,3v1H46V28h1a1,1,0,0,0,0-2H45.95A13,13,0,0,0,34,14.05V10.57A16.06,16.06,0,0,0,40.54,12H41a1,1,0,0,0,1-1V7a1,1,0,0,0-1-1h-.46a14.06,14.06,0,0,1-6.26-1.48l-.83-.42A1,1,0,0,0,32,5v9.05A13,13,0,0,0,20.05,26H19a1,1,0,0,0,0,2h1v4H12V31a3,3,0,0,0-3-3H7a3,3,0,0,0-3,3v1.18a3,3,0,0,0,0,5.63V60H3a1,1,0,0,0,0,2H63a1,1,0,0,0,0-2ZM56,31a1,1,0,0,1,1-1h2a1,1,0,0,1,1,1v1H56ZM44,32H38V28h6ZM30,28h6v4H30ZM40,8v2a14.08,14.08,0,0,1-5.72-1.47L34,8.38V6.6A16.09,16.09,0,0,0,40,8Zm-7,8A11,11,0,0,1,44,26H22A11,11,0,0,1,33,16ZM22,28h6v4H22ZM6,31a1,1,0,0,1,1-1H9a1,1,0,0,1,1,1v1H6ZM5,34H61a1,1,0,0,1,0,2H5a1,1,0,0,1,0-2ZM38,60H36V56h2Zm-4,0H32V56h2Zm-4,0H28V56h2Zm10,0V56a2,2,0,0,0-2-2H28a2,2,0,0,0-2,2v4H6V38H60V60Z"/></svg>